<?xml version="1.0" encoding="UTF-8"?>
<svg id="Layer_2" data-name="Layer 2" xmlns="http://www.w3.org/2000/svg" viewBox="0 0 228.27 213">
  <defs>
    <style>
      .cls-1 {
        fill: #fbf6ee;
      }

      .cls-1, .cls-2, .cls-3, .cls-4 {
        stroke-width: 0px;
      }

      .cls-2 {
        fill: #30787a;
      }

      .cls-3 {
        fill: #3fa059;
      }

      .cls-4 {
        fill: #092f48;
      }
    </style>
  </defs>
  <g id="Layer_1-2" data-name="Layer 1">
    <path class="cls-4" d="M113.24,212.93c-29.63,0-59.26.02-88.88-.02-3.15,0-6.33-.15-9.45-.57-8.13-1.08-14.41-5.7-14.5-18.6C.07,142.48.14,91.21.05,39.94c0-5.16-.11-10.32,0-15.48C.34,9.79,10.84-.26,25.48,0c57.59,1.03,115.18.25,172.77.44,7.15.02,14.29-.32,20.34,4.67,5.81,4.79,9.44,10.76,9.46,18.31.16,55.26.23,110.53.22,165.79,0,13.32-10.92,23.8-24.15,23.79-30.29-.04-60.59-.01-90.88-.01v-.05ZM112.77,201.29v-.02c29.95,0,59.9-.25,89.84.17,7.8.11,14.65-6.64,14.6-14.8-.31-52.74-.31-105.48-.08-158.21.04-9.65-5.85-16.64-16.78-16.6-52.57.2-105.14.1-157.71-.09-4.27-.02-5.45.84-5.43,5.32.19,53.4.12,106.81.12,160.21,0,8.1-.97,9.32-8.69,11.28-4.78,1.21-9.49,2.81-14.34,3.68-3.63.65-3.41,2.19-2.17,4.76,2.19,4.52,6.4,4.25,10.3,4.26,30.11.07,60.23.04,90.34.04ZM26.28,93.53h-.04c0-1.5,0-2.99,0-4.49,0-24.44-.12-48.88.09-73.32.03-4.18-1.04-5.21-4.95-4.11-6.63,1.87-10.25,6.85-10.25,14.6.05,47.88.1,95.76.15,143.64.01,10.49-.05,10.29,10.18,7.84,3.82-.91,4.94-2.49,4.91-6.36-.18-25.93-.09-51.87-.09-77.8Z"/>
    <path class="cls-1" d="M112.77,201.29c-30.11,0-60.23.03-90.34-.04-3.91,0-8.11.26-10.3-4.26-1.25-2.57-1.46-4.11,2.17-4.76,4.84-.87,9.55-2.46,14.34-3.68,7.72-1.96,8.69-3.18,8.69-11.28,0-53.4.06-106.81-.12-160.21-.02-4.48,1.16-5.34,5.43-5.32,52.57.19,105.14.3,157.71.09,10.93-.04,16.82,6.95,16.78,16.6-.23,52.74-.22,105.48.08,158.21.05,8.15-6.8,14.9-14.6,14.8-29.94-.41-59.89-.17-89.84-.17v.02ZM172.12,111.77c5.58.16,10.87-1.27,15.96-3.3,21.45-8.53,27.09-32.02,11.12-46.69-3.62-3.32-7.13-6.21-6.4-11.84.19-1.48-.82-3.16-1.43-4.7-4.37-11.04-15.87-17.88-27.86-16.61-12.8,1.36-22.94,10.72-25.12,23.72-.44,2.64-1.51,3.86-3.54,5.29-14.88,10.45-16.59,29.82-3.59,42.57,8.17,8.01,18.38,11.55,29.77,11.72.07,4.94.06,9.88.23,14.82.11,3.27,1.3,5.86,5.17,5.86,3.96,0,5.5-2.4,5.56-6.02.08-4.94.08-9.89.12-14.83ZM123.22,179.82c1.4.36,3.38.07,5.36-.22,8.22-1.18,11.41-8.02,6.86-14.95-1.07-1.63-2.49-3.2-4.09-4.3-6.72-4.63-14.09-8.05-22.04-9.77-2.84-.62-4.19-1.28-4.8-4.28-1.24-6.1-5.28-10-11.39-10.99-2.82-.46-3.35-1.41-2.65-3.78,3.64-12.42-7.38-25.14-16.47-28.54-6.73-2.52-11.93.13-13.63,7.2-.45,1.86-1.23,2.82-2.68,3.78-9.06,5.97-12.73,17.67-5.6,26.73.67.86,1.36,1.45.46,2.94-7.28,12.1-3.4,24.49,9.13,29.97,4.93,2.16,9.7,2.2,14.15-.88,3.23-2.24,5.44-2.24,8.3.96,4.84,5.4,11.25,9.52,18.5,6.8,6.91-2.6,13.33-1.26,20.6-.67ZM109.18,109.73c-.13-3.89.2-7.02-.37-10.19-2.13-11.76-10.12-18.48-20.11-23.34-11.44-5.56-23.93-7.19-36.32-8.98-2.47-.36-4.49,1.18-5.05,3.83-.55,2.6.43,4.7,2.93,5.62,2.3.85,4.73,1.38,7.14,1.88,10.63,2.19,21.5,3.54,31.06,9.34,7.72,4.68,11.29,11.42,10.17,20.45-1.44,11.64,2.79,20.72,12.22,27.5,8.35,6,18.16,8.52,27.76,11.41,17.42,5.26,35.98,7.85,49.33,22.2,1.7,1.82,4.02,1.26,5.88-.26,2.19-1.78,2.05-4.27,1-6.37-1.16-2.34-2.98-4.31-5.07-6.04-9.5-7.87-20.72-12.05-32.36-15.38-11.8-3.37-23.87-5.96-35.1-11.07-9.07-4.12-14.97-10.44-13.11-20.63ZM90.53,52.71c3.84.53,9.05-.9,14.32-1.27,5.32-.37,6.92-4.25,4.03-8.86-2.13-3.4-4.9-6.34-7.99-8.82-16.27-13.08-36.2-12.79-52.25.46-5.67,4.68-4.44,9.37,2.4,12.3,3.64,1.56,7.84,1.42,11.17,3.8,5.01,3.59,10.54,4.79,16.48,3.26,3.43-.88,6.84-1.05,11.83-.87Z"/>
    <path class="cls-2" d="M26.28,93.53c0,25.93-.09,51.87.09,77.8.03,3.88-1.09,5.45-4.91,6.36-10.23,2.45-10.17,2.65-10.18-7.84-.05-47.88-.11-95.76-.15-143.64,0-7.74,3.61-12.72,10.25-14.6,3.91-1.1,4.98-.07,4.95,4.11-.2,24.44-.09,48.88-.09,73.32,0,1.5,0,2.99,0,4.49h.04Z"/>
    <path class="cls-3" d="M161.03,111.93c-11.4-.17-21.6-3.71-29.77-11.72-13-12.75-11.29-32.11,3.59-42.57,2.04-1.43,3.1-2.65,3.54-5.29,2.18-13,12.32-22.36,25.12-23.72,11.98-1.27,23.49,5.57,27.86,16.61.61,1.53,1.62,3.21,1.43,4.7-.73,5.63,2.78,8.52,6.4,11.84,15.97,14.67,10.33,38.16-11.12,46.69-5.1,2.03-10.38,3.46-15.96,3.3-1.72-4.96-.86-8.8,3.91-11.88,4.16-2.68,7.86-6.09,11.63-9.34,2.49-2.15,4.69-4.83,1.94-8.08-2.7-3.19-5.85-2.36-8.76.05-3.1,2.57-6.2,5.16-9.73,8.1,0-6.76-.11-12.73.05-18.69.08-2.89-1.27-4.42-3.85-4.88-2.62-.46-4.39.86-5.44,3.28-.84,1.92-.54,3.91-.6,5.89-.15,5.02.42,10.07-.47,15.47-3.23-2.89-6.1-5.37-8.85-7.97-2.5-2.37-5.19-3.35-7.8-.58-2.53,2.69-1.66,5.5.81,7.86,3.96,3.79,7.7,7.87,12.05,11.15,3.54,2.67,4.75,5.66,4.04,9.77Z"/>
    <path class="cls-3" d="M123.22,179.82c-7.27-.59-13.69-1.93-20.6.67-7.24,2.72-13.66-1.4-18.5-6.8-2.86-3.2-5.08-3.2-8.3-.96-4.45,3.08-9.22,3.04-14.15.88-12.53-5.48-16.41-17.87-9.13-29.97.9-1.49.22-2.09-.46-2.94-7.12-9.06-3.46-20.75,5.6-26.73,1.45-.96,2.23-1.92,2.68-3.78,1.7-7.07,6.91-9.71,13.63-7.2,9.09,3.4,20.11,16.12,16.47,28.54-.69,2.36-.17,3.32,2.65,3.78,6.11.99,10.15,4.89,11.39,10.99.61,3,1.97,3.66,4.8,4.28,7.95,1.73,15.32,5.14,22.04,9.77,1.6,1.1,3.02,2.66,4.09,4.3,4.54,6.94,1.35,13.77-6.86,14.95-1.98.28-3.96.58-5.36.22Z"/>
    <path class="cls-4" d="M109.18,109.73c-1.86,10.19,4.04,16.5,13.11,20.63,11.23,5.11,23.3,7.69,35.1,11.07,11.64,3.33,22.86,7.51,32.36,15.38,2.09,1.73,3.91,3.7,5.07,6.04,1.04,2.1,1.19,4.59-1,6.37-1.86,1.51-4.19,2.08-5.88.26-13.35-14.35-31.9-16.95-49.33-22.2-9.6-2.89-19.41-5.41-27.76-11.41-9.44-6.78-13.67-15.86-12.22-27.5,1.12-9.03-2.46-15.77-10.17-20.45-9.55-5.8-20.43-7.15-31.06-9.34-2.41-.5-4.84-1.02-7.14-1.88-2.5-.93-3.48-3.03-2.93-5.62.56-2.65,2.57-4.19,5.05-3.83,12.4,1.78,24.89,3.41,36.32,8.98,9.99,4.86,17.97,11.58,20.11,23.34.57,3.16.24,6.29.37,10.19Z"/>
    <path class="cls-3" d="M90.53,52.71c-4.99-.18-8.4,0-11.83.87-5.94,1.52-11.48.33-16.48-3.26-3.33-2.39-7.53-2.25-11.17-3.8-6.84-2.93-8.07-7.62-2.4-12.3,16.05-13.24,35.98-13.54,52.25-.46,3.09,2.49,5.85,5.43,7.99,8.82,2.89,4.61,1.29,8.48-4.03,8.86-5.28.37-10.49,1.8-14.32,1.27Z"/>
    <path class="cls-4" d="M161.03,111.93c.7-4.11-.5-7.1-4.04-9.77-4.35-3.28-8.09-7.36-12.05-11.15-2.46-2.36-3.34-5.17-.81-7.86,2.61-2.77,5.3-1.79,7.8.58,2.75,2.6,5.62,5.07,8.85,7.97.9-5.4.32-10.46.47-15.47.06-1.98-.23-3.97.6-5.89,1.05-2.42,2.82-3.74,5.44-3.28,2.58.46,3.93,1.98,3.85,4.88-.16,5.96-.05,11.92-.05,18.69,3.53-2.94,6.63-5.53,9.73-8.1,2.91-2.41,6.06-3.25,8.76-.05,2.74,3.25.55,5.93-1.94,8.08-3.77,3.25-7.47,6.66-11.63,9.34-4.77,3.08-5.63,6.92-3.91,11.88-.04,4.94-.04,9.89-.12,14.83-.06,3.62-1.6,6.02-5.56,6.02-3.87,0-5.06-2.6-5.17-5.86-.17-4.94-.16-9.88-.23-14.82Z"/>
  </g>
</svg>