<?xml version="1.0" encoding="UTF-8"?>
<svg id="Layer_2" data-name="Layer 2" xmlns="http://www.w3.org/2000/svg" viewBox="0 0 269.86 280.85">
  <defs>
    <style>
      .cls-1 {
        fill: #dd9031;
      }

      .cls-1, .cls-2, .cls-3, .cls-4 {
        stroke-width: 0px;
      }

      .cls-2 {
        fill: #30787a;
      }

      .cls-3 {
        fill: #3fa059;
      }

      .cls-4 {
        fill: #092f48;
      }
    </style>
  </defs>
  <g id="Layer_1-2" data-name="Layer 1">
    <path class="cls-4" d="M89.62,214.59c-1.11,2.16-.3,4.48-.47,6.71-.19,2.54-.23,5.1-3.07,6.04-2.63.88-5.14.43-6.97-1.97-.07-4.66.07-9.33-.25-13.97-.73-10.41-4.65-19.22-13.15-25.77-7-5.39-15.09-4.19-22.99-4.27-14.18-.15-23.17,7.17-28.97,19.63-3.83,8.23-2.45,16.98-3.49,25.48-1.35,3.13-3.81,3.99-6.88,3.11-2.94-.84-3.27-3.29-3.34-5.93-.42-16.46,2.88-31.25,15.45-43.4,14.8-14.3,48.5-14.64,61.71.85.18.21.59.24,1.04.4,8.21-19.4,22.88-30.59,43.68-33.37,21.15-2.82,37.37,5.49,49.59,23.29.79-5.74.06-11.26,1.2-16.72,3.87-18.47,13.67-32.16,31.57-38.84,17.79-6.63,34.6-4.08,49.18,8.4,10.75,9.2,15.69,21.53,16.2,35.5.37,9.97.08,19.96.11,29.95,0,2.5.39,5.26-2.42,6.51-2.85,1.28-5.49.53-7.6-1.83-.28-11.26-.74-22.53-.75-33.79,0-5.64-1.38-10.92-3.52-15.89-5.67-13.13-19.68-22.35-33.03-21.74-16.53.75-29.41,7.56-36.14,23.49-4.23,10.01-4.75,20.59-4.45,31.28.06,2.1.86,5.02-1.15,6.07-3.62,1.88-2.54,4.31-1.89,7.01.47,1.93.77,3.9,1.14,5.85,0,4.47-.04,8.95.01,13.42.03,2.75-.04,5.4-3.21,6.5-3.18,1.1-5.42-.23-7.09-2.9.27-5.65.07-11.25-.62-16.9-2.97-24.54-19.16-38.85-43.59-38.21-17.21.45-33.28,12.76-38.01,29.32-.71,2.48-2.36,5.2-1.25,7.67,2.74,6.11,2.67,12.6,3.41,19Z"/>
    <path class="cls-2" d="M179.97,196.68c-.37-1.95-.67-3.92-1.14-5.85-.66-2.7-1.74-5.13,1.89-7.01,2.01-1.04,1.21-3.96,1.15-6.07-.3-10.69.22-21.27,4.45-31.28,6.74-15.93,19.61-22.74,36.14-23.49,13.35-.61,27.36,8.61,33.03,21.74,2.15,4.97,3.52,10.25,3.52,15.89,0,11.27.47,22.53.75,33.79-13.99.06-27.94,1.85-41.96,1.03,1.83-11.35.82-22.77.79-34.16,0-2.65-2.47-3.75-5.07-3.67-2.95.1-4.63,1.69-4.72,4.66-.3,10.23-.44,20.46-.87,30.68-.1,2.33,1.67,2.48,2.76,3.51-10.24.07-20.48.14-30.72.21Z"/>
    <path class="cls-1" d="M89.62,214.59c-.74-6.4-.66-12.9-3.41-19-1.11-2.47.54-5.19,1.25-7.67,4.73-16.56,20.79-28.86,38.01-29.32,24.42-.64,40.62,13.67,43.59,38.21.68,5.65.89,11.25.62,16.9-26.67,1.52-53.37.71-80.05.88Z"/>
    <path class="cls-4" d="M238.87,206.86c-1.46,10.24-5.93,19.13-12.8,26.77-1.65,1.84-2.13,3.01-1.08,5.4,3.69,8.45.62,18.48-6.9,23.63-7.53,5.16-18.28,4.59-24.63-1.98-2.78-2.88-4.77-3.21-8.33-1.66-9.64,4.19-20,5.58-30.37,6.41-2.78.22-4.24.83-5.55,3.52-3.91,8-10.6,11.92-19.57,11.89-9.29-.02-15.8-4.47-19.55-12.74-1.11-2.45-2.21-3.29-4.92-3.66-19.81-2.71-38.01-9.47-53.69-22.22-.77-.63-1.55-1.26-2.24-1.97-2.32-2.36-3.57-5.01-.96-7.84,2.53-2.74,5.68-2.79,8.47-.54,7.13,5.73,14.69,10.68,23.11,14.31,8.38,3.62,17.2,5.55,26.11,7.24,2.64.5,3.16-.99,4.03-3.07,5.45-13.08,20.27-18.16,31.6-10.99,4.33,2.74,7.72,6.45,9.08,11.37.8,2.88,2.18,3.08,4.62,3.03,10.05-.19,19.46-3.09,28.79-6.4,1.89-.67,2.52-2.04,2.78-4.16,1.42-11.94,14.48-19.95,25.77-15.73,2.37.88,3.51.29,5.03-1.22,5.05-5.01,8.32-10.99,10.09-17.84.29-1.12.63-2.23.89-3.36.69-3.02,2.6-4.87,5.64-4.34,3.07.54,4.88,2.67,4.58,6.15ZM130.68,247.43c-6.19-.02-11.44,5.54-11.39,12.06.05,5.56,5.37,10.72,11.07,10.75,5.29.03,10.97-5.82,11.15-11.49.2-5.99-4.89-11.3-10.84-11.32ZM206.6,255.15c4.05.07,8.88-4.44,9.08-8.5.21-4.24-4.96-9.2-9.51-9.13-4.39.07-8.28,3.84-8.46,8.21-.21,5.08,3.81,9.33,8.9,9.43Z"/>
    <path class="cls-3" d="M10.25,226.48c1.04-8.5-.34-17.25,3.49-25.48,5.8-12.45,14.79-19.78,28.97-19.63,7.91.08,16-1.12,22.99,4.27,8.5,6.55,12.42,15.36,13.15,25.77.32,4.64.18,9.31.25,13.97-20.82.21-41.64.41-62.46.65-2.13.02-4.26.29-6.39.45Z"/>
    <path class="cls-4" d="M251.79,77.94c-.03,17.24-14.03,31.4-31.08,31.43-17.33.02-30.98-14.38-30.92-32.61.05-16.81,14.28-30.9,31.14-30.83,17.4.07,30.89,14.06,30.86,32.01ZM240.86,77.67c.05-11.24-8.54-19.96-19.63-19.93-11.31.03-20.24,8.56-20.35,19.44-.1,10.76,9.02,20.37,19.5,20.54,10.82.18,20.43-9.22,20.47-20.05Z"/>
    <path class="cls-4" d="M126.58,142.86c-16.54.06-29.65-13.56-29.68-30.8-.03-17.49,13.44-31.34,30.46-31.33,16.36.01,30.31,14.08,30.3,30.54-.01,17.2-14.11,31.53-31.08,31.59ZM145.98,111.76c.06-10.98-7.77-19.07-18.5-19.13-10.62-.06-19.57,8.61-19.6,19-.03,10.45,8.54,19.64,18.47,19.79,10.6.16,19.56-8.82,19.62-19.66Z"/>
    <path class="cls-4" d="M45.87,165.68c-16.62,0-29.9-13.45-29.78-30.12.12-16.08,13.83-29.83,29.69-29.79,16.14.04,29.86,13.89,29.95,30.23.08,15.84-13.85,29.69-29.87,29.68ZM27.9,135.99c0,10.37,7.49,17.87,17.79,17.82,10.48-.05,18.49-8.14,18.42-18.62-.06-9.89-8.04-17.52-18.34-17.54-10.44-.02-17.87,7.61-17.87,18.35Z"/>
    <path class="cls-3" d="M153,14.56c-17.91.18-33.62,5.25-44.86,20.27-2.43,3.24-3.84,6.96-5.01,10.74-1.01,3.25-2.96,4.93-6.22,4.19-3.43-.78-5.52-3.03-5.03-6.86.91-7.09,4-13.23,8.24-18.87C115.58,3.48,137.3-1.13,161.25.22c9.53.54,18.62,2.96,26.97,7.74,1.58.9,3.1,1.97,4.44,3.19,2.05,1.88,4.71,3.79,3.15,7.11-1.56,3.33-4.75,4.07-8.05,3.56-2.57-.4-5.13-1.22-7.56-2.2-8.73-3.54-17.77-5.23-27.2-5.05Z"/>
    <path class="cls-3" d="M39.29,24.68c8.8-.22,17.52,1.08,25.43,5.97,3.21,1.98,5.76,4.54,7.01,8.11.66,1.88.87,4.18-.92,5.55-1.78,1.36-3.69,2.06-6.31.81-17.95-8.56-35.45-7.6-52.26,3.19-2.38,1.53-4.48,2.06-6.7-.04-2.23-2.11-4.21-4.15-2.81-7.74,1.21-3.1,3.28-5.34,5.82-7.23,9.04-6.74,19.43-8.83,30.74-8.61Z"/>
    <path class="cls-3" d="M149.41,28.54c7.78.11,15.37.91,22.26,5.11,3.36,2.04,5.6,4.77,4.04,8.56-1.57,3.8-5.15,4.25-8.9,3.2-15.99-4.48-31.15-3.15-45.12,6.44-1.44.99-2.94,1.7-4.57.68-1.85-1.16-2.52-2.92-2.32-5.13.36-3.95,2.63-6.75,5.5-9.09,8.46-6.89,18.31-9.74,29.11-9.77Z"/>
    <path class="cls-3" d="M45.34,51.96c10.34.2,20.04,2.3,28.12,9.3.5.43,1.02.85,1.52,1.28,2.39,2.11,3.41,4.83,1.7,7.54-1.89,3-4.85,2.05-7.51.83-1.79-.82-3.5-1.84-5.29-2.67-8.79-4.03-17.82-4.51-27.07-1.78-2.36.7-4.68,1.6-7.25,1.44-2.9-.19-5-1.12-5.95-4.2-.92-2.97.51-4.86,2.56-6.37,5.7-4.18,12.31-5.35,19.19-5.37Z"/>
    <path class="cls-4" d="M210.69,196.47c-1.08-1.02-2.85-1.17-2.76-3.51.43-10.22.57-20.45.87-30.68.09-2.97,1.77-4.56,4.72-4.66,2.6-.08,5.06,1.01,5.07,3.67.03,11.39,1.04,22.81-.79,34.16-2.31.78-4.6,1.68-7.11,1.02Z"/>
    <path class="cls-2" d="M130.68,247.43c5.95.02,11.04,5.33,10.84,11.32-.19,5.67-5.86,11.52-11.15,11.49-5.71-.03-11.03-5.19-11.07-10.75-.06-6.52,5.19-12.08,11.39-12.06Z"/>
    <path class="cls-2" d="M206.6,255.15c-5.09-.09-9.11-4.35-8.9-9.43.18-4.37,4.07-8.14,8.46-8.21,4.55-.07,9.72,4.89,9.51,9.13-.2,4.06-5.02,8.58-9.08,8.5Z"/>
    <path class="cls-1" d="M240.86,77.67c-.04,10.82-9.65,20.23-20.47,20.05-10.48-.18-19.61-9.79-19.5-20.54.1-10.87,9.04-19.41,20.35-19.44,11.09-.03,19.68,8.69,19.63,19.93Z"/>
    <path class="cls-1" d="M145.98,111.76c-.06,10.84-9.03,19.82-19.62,19.66-9.93-.15-18.51-9.34-18.47-19.79.03-10.39,8.97-19.06,19.6-19,10.73.06,18.56,8.15,18.5,19.13Z"/>
    <path class="cls-1" d="M27.9,135.99c0-10.74,7.44-18.37,17.87-18.35,10.3.02,18.27,7.65,18.34,17.54.07,10.48-7.94,18.57-18.42,18.62-10.3.05-17.79-7.45-17.79-17.82Z"/>
  </g>
</svg>