<?xml version="1.0" encoding="UTF-8"?>
<svg id="Layer_2" data-name="Layer 2" xmlns="http://www.w3.org/2000/svg" viewBox="0 0 257.84 247.91">
  <defs>
    <style>
      .cls-1 {
        fill: #304850;
      }

      .cls-1, .cls-2, .cls-3, .cls-4 {
        stroke-width: 0px;
      }

      .cls-2 {
        fill: #dd9031;
      }

      .cls-3 {
        fill: #3fa059;
      }

      .cls-4 {
        fill: #092f48;
      }
    </style>
  </defs>
  <g id="Layer_1-2" data-name="Layer 1">
    <path class="cls-4" d="M170.04,242.47c-1.6,3.54-4.5,4.24-7.87,3.28-3.21-.92-3.26-3.65-3.36-6.44-.6-17.45-1.37-34.9-1.92-52.35-.08-2.63-.91-3.33-3.47-3.29-7.82.12-15.65.14-23.46-.13-3.14-.11-4.15.63-4.11,3.96.17,16.64.01,33.28.08,49.92.01,3.32-.11,6.59-3.52,8.09-3.4,1.5-6-.57-8.32-2.86,1.51-27.58.54-55.19.86-82.79.04-3.16-.16-6.34.14-9.47.32-3.38,2.65-4.89,5.9-4.69,3.03.19,4.97,1.81,5.08,5.03.08,2.49.01,4.98.01,7.48.02,4.44-1.91,10.15.68,12.95,2.4,2.59,8.17.64,12.45.75,4.65.12,9.32-.07,13.97.11,2.2.08,2.92-.57,2.78-2.78-.19-2.98.11-6-.1-8.98-.83-12.22,10.5-27.42,26.85-27.33,6.47.04,12.94-.19,19.17,2.07,10.18,3.69,16.83,12.99,16.98,23.87,0,.17-.01.33,0,.5.36,4.09-1.67,10.83.74,11.74,4.94,1.88,11.05.69,16.68.75,1.39.02,1.52-.93,1.51-2-.01-1.16,0-2.33,0-3.49,0-46.08.02-92.15.02-138.23-.78-3.32-3.49-1.96-5.34-1.96-41.75-.08-83.5-.06-125.25-.03-.97,0-2.08-.46-2.92.54,1.46.78,3.38-.33,4.63,1.18-16.97.1-33.94.29-50.91.22-3.27-.01-4.16.88-4.11,4.13.21,12.31.13,24.63.13,36.94,0,5.12-2.11,8.21-5.57,7.78-4.43-.56-5.82-3.57-5.81-7.79.03-12.15-.18-24.29-.15-36.44,0-2.9-.29-4.84-3.96-4.39-4,.49-6.46-1.33-6.47-5.54-.01-4.56,2.88-5.76,6.9-5.8,31.95-.26,63.89-.77,95.84-.73,5.49,0,6.45-1.79,5.69-6.38-.26-1.61-.24-3.33-.04-4.95.37-2.99,1.96-4.73,5.21-4.91,3.53-.19,5.12,1.75,5.98,4.74.13.47.11.99.13,1.48.14,3.12-.92,7.46.71,9.07,2.24,2.22,6.6.71,10.04.71,29.12.06,58.25.06,87.37,0,3.85,0,7.25.65,7.84,4.98.61,4.49-2.27,6.79-6.43,6.87-4.08.08-2.4,2.92-2.4,4.55-.06,42.44-.01,84.88.02,127.31,0,2.33.13,4.67-.04,6.99-.23,3.22-.38,5.65,4.33,5.4,2.87-.15,4.67,2.77,4.38,5.64-.3,3.01-2.24,5.14-5.65,5.18-8.99.11-17.98.49-26.95.18-4.85-.17-6.35,1.03-6.41,6.17-.21,16.96-1.15,33.91-1.66,50.87-.1,3.28-1.38,5.59-4.38,6.44-3.4.96-5.73-.73-6.85-4.05.25-6.64.51-13.28.74-19.93.7-20.93,1.9-41.86,1.41-62.81-.21-9.29-6.24-14.97-15.54-15.02-2.99-.02-5.99.05-8.98.04-10.92-.04-16.77,5.56-16.41,16.49.89,27.06,2.06,54.1,3.11,81.15Z"/>
    <path class="cls-4" d="M84.27,242.76c-1.28,3.27-3.75,4.79-7.07,3.82-3.31-.96-4.25-3.64-4.22-7.05.15-13.31-.02-26.63.22-39.94.06-3.4-.62-4.96-4.23-4.31-.97.17-2.01.13-2.99,0-3.69-.53-4.84.67-5.08,4.7-.7,11.71-.34,23.51-2.76,35.1-.36,1.71.31,3.61.23,5.42-.13,3.21-.41,6.52-4.45,7.29-3.86.73-5.77-1.66-7.03-4.85.72-8.81,1.56-17.62,2.15-26.45,1.27-19.07,2.38-38.14,2.02-57.27-.14-7.49-4.37-12.87-11.68-14.68-4.41-1.09-8.94-.89-13.37-.23-9.49,1.42-13.94,6.31-14.35,15.96-.34,7.97,0,15.97-.44,23.93-.24,4.43,1.25,6.03,5.64,6.46,5.94.57,7.19,2.36,7.1,8.49-.22,14.79-.54,29.58-.83,44.37-7.45,3.78-10.59,1.98-10.5-6.03.13-10.81.25-21.63.42-32.44.03-1.91.13-3.64-2.43-4.07-7.17-1.22-10.1-6.65-10.26-12.82-.29-10.94-.98-21.96.61-32.88,1.77-12.17,12.08-21.7,24.24-22.41,9.14-.53,18.37-1.2,26.19,5.02,1.88,1.5,2.09-.05,2.77-1.04,3.63-5.34,7.18-10.74,10.91-16.01,5.27-7.44,12.37-11.05,21.67-10.9,14.49.22,28.09,3.67,40.88,10.32,2.29,1.19,3.87,1.58,6.04-.27,2.88-2.46,6.13-4.51,9.26-6.68,3.4-2.35,6.99-2.7,9.86.53,2.63,2.96,1.76,6.13-.89,8.85-5.31,2.46-9.78,6.23-14.59,9.46-3.69,2.47-6.97,2.87-11.02.66-9.6-5.22-19.6-9.67-30.7-10.4-5.68-.38-12.8-3.08-16.78,1.43-8.42,9.55-19.69,17.95-17.07,33.69,1.24,7.45.36,15.28.17,22.93-.07,2.89.87,3.88,3.65,3.53,1.31-.17,2.67-.17,3.99-.01,2.73.32,3.76-.6,3.69-3.51-.17-6.82.1-13.64.02-20.46-.09-7.75,1.4-10.46,6-10.32,4.29.13,5.82,3.01,5.62,10.22-.78,27.61-.94,55.23-.65,82.86Z"/>
    <path class="cls-2" d="M84.27,242.76c-.29-27.62-.13-55.24.65-82.86.2-7.21-1.33-10.09-5.62-10.22-4.59-.14-6.09,2.57-6,10.32.08,6.82-.19,13.65-.02,20.46.07,2.91-.96,3.83-3.69,3.51-1.31-.15-2.68-.15-3.99.01-2.78.35-3.72-.64-3.65-3.53.19-7.65,1.07-15.48-.17-22.93-2.62-15.75,8.65-24.14,17.07-33.69,3.98-4.51,11.1-1.81,16.78-1.43,11.1.73,21.09,5.18,30.7,10.4,4.06,2.21,7.33,1.81,11.02-.66,4.81-3.22,9.28-7,14.59-9.46,5.6,2.39,6.72,6.91,3.12,12.77-3.28,5.34-8.31,8.93-13.1,12.71-4.93,3.89-10.13,7.41-15.87,10.04,0-2.49.07-4.99-.01-7.48-.1-3.22-2.04-4.84-5.08-5.03-3.26-.2-5.58,1.31-5.9,4.69-.3,3.13-.1,6.31-.14,9.47-.33,27.6.65,55.2-.86,82.79-3.03-.02-6.06-.04-9.09-.05-.01-15.43-.07-30.86,0-46.29.01-3.09-1.27-5.23-4-6.17-2.34-.8-4.6-.03-6.19,2.05-1.42,1.87-1.15,4.08-1.16,6.22-.02,14.76-.03,29.53-.05,44.29-3.11.02-6.23.04-9.34.06Z"/>
    <path class="cls-3" d="M170.04,242.47c-1.05-27.05-2.22-54.1-3.11-81.15-.36-10.93,5.49-16.53,16.41-16.49,2.99.01,5.99-.06,8.98-.04,9.3.05,15.33,5.74,15.54,15.02.48,20.96-.72,41.88-1.41,62.81-.22,6.64-.49,13.29-.74,19.93-4.18.04-8.36.08-12.54.13-.03-14.29-.05-28.58-.1-42.87-.02-4.94-2.26-8.07-5.75-7.63-4.25.54-5.47,3.35-5.43,7.47.13,14.29,0,28.58-.04,42.86-3.93,0-7.87-.02-11.8-.03Z"/>
    <path class="cls-2" d="M23.16,243.52c.28-14.79.6-29.58.83-44.37.09-6.13-1.16-7.92-7.1-8.49-4.39-.42-5.88-2.03-5.64-6.46.43-7.96.1-15.96.44-23.93.41-9.65,4.85-14.54,14.35-15.96,4.43-.66,8.95-.87,13.37.23,7.31,1.81,11.54,7.19,11.68,14.68.36,19.13-.75,38.2-2.02,57.27-.59,8.82-1.43,17.63-2.15,26.45-7.92.2-15.83.39-23.75.59Z"/>
    <path class="cls-4" d="M61.07,103.03c0,14.77-11.72,26.89-26.07,26.95-14.64.06-26.99-12.24-26.86-26.75.13-14.79,12.47-27.34,26.59-27.07,14.4.28,26.34,12.46,26.35,26.87ZM34.24,118.54c8.42-.19,15.79-7.42,15.79-15.51,0-8.4-7.21-15.31-15.79-15.14-8.1.16-15.03,7.47-14.84,15.63.2,8.28,7.03,15.19,14.84,15.02Z"/>
    <path class="cls-4" d="M75.7,77.29c-.51-14.67,10.33-26.04,25.45-26.67,13.85-.58,26.93,11.88,27.14,25.92.21,13.93-11.19,27.05-24.46,27.49-16.05.53-27.56-10.41-28.13-26.73ZM101.79,61.95c-8.43-.02-15.25,6.63-15.32,14.93-.08,9.05,6.71,16.2,15.33,16.13,8.25-.07,15.37-7.36,15.33-15.7-.05-8.87-6.51-15.34-15.34-15.36Z"/>
    <path class="cls-4" d="M187.95,78.15c13.73.15,25.69,12.41,25.76,26.41.07,13.74-12.18,26.17-25.91,26.27-13.86.1-25.81-12.24-25.84-26.7-.03-14.11,11.99-26.13,25.99-25.98ZM201.99,104.32c-.01-8.23-5.88-14.32-13.87-14.38-8.22-.07-14.29,6.05-14.35,14.48-.06,8.37,6.06,14.68,14.21,14.67,8.31-.02,14.03-6.03,14.02-14.76Z"/>
    <path class="cls-4" d="M182.41,53.03c9.48,0,18.96-.03,28.45.02,5.08.02,8.42,2.49,7.88,6.18-.63,4.31-3.78,5.74-7.88,5.73-18.96-.04-37.93-.03-56.89-.04-5.41,0-8.09-1.98-8.05-5.93.04-4,2.63-5.94,8.04-5.95,9.48-.02,18.96,0,28.45,0Z"/>
    <path class="cls-4" d="M93.61,242.7c.01-14.76.02-29.53.05-44.29,0-2.14-.26-4.35,1.16-6.22,1.59-2.08,3.84-2.86,6.19-2.05,2.73.94,4.02,3.08,4,6.17-.07,15.43-.01,30.86,0,46.29-3.74,5.08-7.48,5.12-11.4.11Z"/>
    <path class="cls-4" d="M181.84,242.5c.04-14.29.17-28.58.04-42.86-.04-4.11,1.19-6.93,5.43-7.47,3.48-.44,5.73,2.69,5.75,7.63.05,14.29.07,28.58.1,42.87-.54,2.83-2.41,4.02-5.14,4.3-3.43.34-4.98-1.81-6.19-4.47Z"/>
    <path class="cls-1" d="M108.94,27.88c-1.24-1.51-3.17-.41-4.63-1.18.84-1,1.95-.54,2.92-.54,41.75-.03,83.5-.04,125.25.03,1.85,0,4.56-1.36,5.34,1.96-14.25-.09-28.51-.25-42.76-.27-28.7-.04-57.41,0-86.11,0Z"/>
    <path class="cls-2" d="M34.24,118.54c-7.81.17-14.64-6.74-14.84-15.02-.19-8.16,6.74-15.47,14.84-15.63,8.58-.17,15.79,6.74,15.79,15.14,0,8.08-7.37,15.32-15.79,15.51Z"/>
    <path class="cls-2" d="M101.79,61.95c8.82.02,15.29,6.49,15.34,15.36.04,8.34-7.08,15.63-15.33,15.7-8.62.07-15.41-7.08-15.33-16.13.08-8.31,6.89-14.95,15.32-14.93Z"/>
    <path class="cls-2" d="M201.99,104.32c.01,8.72-5.7,14.74-14.02,14.76-8.15.02-14.27-6.3-14.21-14.67.06-8.42,6.13-14.54,14.35-14.48,7.99.07,13.86,6.15,13.87,14.38Z"/>
  </g>
</svg>