<?xml version="1.0" encoding="UTF-8"?>
<svg id="Layer_2" data-name="Layer 2" xmlns="http://www.w3.org/2000/svg" viewBox="0 0 271.44 242.1">
  <defs>
    <style>
      .cls-1 {
        fill: #dd9031;
      }

      .cls-1, .cls-2, .cls-3, .cls-4 {
        stroke-width: 0px;
      }

      .cls-2 {
        fill: #30787a;
      }

      .cls-3 {
        fill: #3fa059;
      }

      .cls-4 {
        fill: #092f48;
      }
    </style>
  </defs>
  <g id="Layer_1-2" data-name="Layer 1">
    <path class="cls-4" d="M12.39,214.11c-3.88.01-6.86-1.27-7.51-5.56-.56-3.68,2.24-6.88,5.81-6.17,3.5.7,6.95-.03,10.38.38,3.28.4,3.74-1.08,3.73-3.99-.11-20.3-.09-40.61.05-60.91.02-2.94-.51-4.21-3.75-3.94-3.8.32-7.65.16-11.47.13-7.8-.07-11.94-6.85-8.31-13.78.91-1.73,2.27-3.28,3.66-4.68,24.05-24.43,48.14-48.81,72.2-73.23,8.59-8.72,16.11-8.62,24.63.43,3.88,4.12,7.66,8.32,11.58,12.4,3.79,3.95,7.7,7.8,12.15,12.29,1.48-5.15,2.77-9.76,4.12-14.35,4.48-15.23,10.64-29.66,19.34-43.05,10.1-15.55,25.55-11.16,33.49-.05,12.66,17.7,20.82,37.36,25.14,58.63,2.24,11.01,3.82,22.1,3.14,33.4-1.37,22.68-13.88,37.16-34,45.82-2.94,1.27-4.35,2.25-4.2,5.77.35,8.14,0,16.31.16,24.46.07,3.76-1.36,6.46-5.05,6.65-4.01.21-5.81-2.6-5.82-6.48-.02-8.32-.24-16.65.07-24.96.17-4.45-2.71-2.94-4.88-3.28-2.48-.39-3.43.25-3.4,3.03.14,15.31.11,30.62.03,45.93-.01,2.42.36,3.46,3.22,3.38,8.65-.24,17.31-.21,25.96-.03,3.32.07,3.93-.5,3.34-4.12-2.25-13.84-1.66-27.45,6.42-39.67,7.26-10.98,18.46-14.4,30.75-15.41,4.31-.36,8.62.01,12.89.86,4.31.86,7.09,2.91,6.34,7.73-.83,5.34.49,8.26,6.16,10.82,15.33,6.89,18.15,21.04,12.55,37.07-1.01,2.88-2.15,4.57,2.28,4.32,3.08-.17,7.38-1.17,7.83,3.4.5,5.12-3.75,5.85-7.76,6.11-3.65.06-7.29.19-10.94.18-56.51-.05-113.02-.05-169.53-.22-23.6-.07-47.19.05-70.78.7ZM14.57,120.58c.35.53.69,1.05,1.04,1.58,3.76,0,7.52-.05,11.27,0,7.44.11,8.98,1.68,8.98,9.15,0,21.97.09,43.95-.14,65.92-.04,4.06,1.15,5.06,4.99,4.81,5.3-.36,10.66-.38,15.97-.08,3.96.22,5.43-.67,5.31-5.07-.34-12.14-.1-24.3-.08-36.45.03-14.34,8.13-24.24,22.09-27,17.5-3.46,32.71,9.02,32.72,26.87,0,12.48.14,24.97-.1,37.45-.07,3.62,1.07,4.48,4.48,4.32,5.65-.28,11.33-.32,16.97.01,3.71.22,4.73-.83,4.7-4.62-.18-22.64-.09-45.28-.06-67.91,0-5.7,1.73-7.42,7.35-7.45,4.09-.03,8.17,0,12.69,0-.5-.92-.63-1.38-.93-1.68-23.13-23.7-46.31-47.35-69.38-71.11-2.38-2.45-3.78-2.06-5.97.17-14.58,14.84-29.2,29.65-43.97,44.3-9.16,9.09-18.61,17.88-27.93,26.8ZM161.72,103.59c0-.61,0-1.86,0-3.11,0-8.82-.01-17.63.05-26.45.02-3.4,1.39-5.85,5.19-5.97,3.95-.13,5.07,2.52,5.32,5.81.11,1.49.08,2.99.09,4.49,0,8.19,0,16.38,0,25.78,1.86-2.85,3.08-4.56,4.13-6.37,1.68-2.91,3.61-5.5,7.42-3.69,3.38,1.6,3.84,5.32,1.24,9.46-2.83,4.5-5.79,8.92-8.87,13.25-1.45,2.04-2.66,3.47-.24,5.9,2.45,2.45,1.12,6.01,1.19,9.09.05,2.47-1.94,2.04-3.54,2.37-1.63.34-1.13,1.98-.87,2.91.44,1.56,1.52.46,2.34.17,14.15-4.96,25.19-19.86,25.45-35.55.5-30.98-8.69-59.13-25.96-84.71-1.37-2.03-3.21-3.85-5.14-5.38-2.63-2.08-5.49-2.1-8.18.2-1.66,1.42-2.96,3.1-4.16,4.92-11.55,17.62-17.55,37.42-22.81,57.53-.45,1.71-.2,2.86.99,4,8.83,8.47,17.64,16.96,26.36,25.35ZM234.84,201.85s0,.04,0,.06c1.83,0,3.66,0,5.49,0,8.25.04,11.2-2.17,13.04-10.08.68-2.92.78-5.95.27-8.94-1.34-7.81-8.7-13.14-16.44-11.98-3.88.58-6.77-2.04-6.51-6.13.18-2.81.68-5.59,1.07-8.38.16-1.16.56-2.21-1.32-2.42-15.9-1.79-30.55,4.34-33.9,21.66-.93,4.78-1.18,9.55-1.12,14.37.17,12.18.2,12.08,12.24,11.99,2.97-.02,4.17-.68,3.99-3.86-.26-4.64-.1-9.31-.07-13.97.02-3.36,1.5-5.36,5.12-5.26,3.53.1,5.03,1.92,4.94,5.41-.11,4.49.12,8.99-.12,13.47-.16,2.98.72,4.3,3.85,4.11,3.15-.19,6.32-.04,9.48-.04ZM73.61,177.49c0,6.82.09,13.63-.04,20.45-.05,2.61.47,4,3.49,3.95,8.31-.14,16.62-.07,24.93-.01,2.47.02,3.66-.92,3.65-3.51-.04-13.13.38-26.28-.13-39.39-.39-9.96-6.97-14.53-18.41-14.04-8.58.37-13.43,5.77-13.49,15.1-.04,5.82,0,11.64,0,17.46ZM158.18,140.05c2.43.5,3.77-.05,3.77-3.19,0-3.14-1.73-3.14-3.8-2.94-1.87.18-4.43-1.05-4.53,2.73-.1,3.63,1.92,3.64,4.56,3.41Z"/>
    <path class="cls-3" d="M12.39,214.11c23.59-.65,47.18-.77,70.78-.7,56.51.17,113.02.16,169.53.22,3.65,0,7.3-.12,10.94-.18-.01,7.65-.28,15.31.06,22.94.2,4.37-.81,5.75-5.53,5.73-64.17-.18-128.33-.12-192.5-.12-15.96,0-31.92-.14-47.87.1-4.01.06-5.48-.75-5.3-5.06.32-7.63-.03-15.28-.11-22.92Z"/>
    <path class="cls-1" d="M14.57,120.58c9.32-8.92,18.77-17.72,27.93-26.8,14.77-14.65,29.39-29.46,43.97-44.3,2.19-2.23,3.59-2.62,5.97-.17,23.07,23.76,46.25,47.41,69.38,71.11.3.3.43.76.93,1.68-4.52,0-8.61-.02-12.69,0-5.62.04-7.34,1.76-7.35,7.45-.03,22.64-.13,45.28.06,67.91.03,3.79-.99,4.84-4.7,4.62-5.64-.33-11.32-.29-16.97-.01-3.41.17-4.55-.7-4.48-4.32.24-12.48.1-24.97.1-37.45,0-17.84-15.21-30.33-32.72-26.87-13.96,2.76-22.06,12.66-22.09,27-.02,12.15-.26,24.31.08,36.45.12,4.4-1.35,5.29-5.31,5.07-5.31-.3-10.66-.28-15.97.08-3.84.26-5.03-.75-4.99-4.81.23-21.97.14-43.94.14-65.92,0-7.47-1.54-9.04-8.98-9.15-3.76-.06-7.52,0-11.27,0-.35-.53-.69-1.05-1.04-1.58Z"/>
    <path class="cls-3" d="M161.72,103.59c-8.72-8.39-17.54-16.87-26.36-25.35-1.19-1.14-1.44-2.29-.99-4,5.26-20.11,11.26-39.91,22.81-57.53,1.2-1.82,2.5-3.51,4.16-4.92,2.69-2.29,5.55-2.28,8.18-.2,1.93,1.53,3.77,3.35,5.14,5.38,17.27,25.58,26.46,53.73,25.96,84.71-.25,15.7-11.3,30.59-25.45,35.55-.82.29-1.91,1.39-2.34-.17-.26-.93-.77-2.57.87-2.91,1.59-.33,3.59.1,3.54-2.37-.07-3.09,1.27-6.64-1.19-9.09-2.42-2.42-1.22-3.86.24-5.9,3.08-4.33,6.04-8.75,8.87-13.25,2.6-4.14,2.14-7.86-1.24-9.46-3.81-1.81-5.74.78-7.42,3.69-1.05,1.81-2.27,3.52-4.13,6.37,0-9.4,0-17.59,0-25.78,0-1.5.03-3-.09-4.49-.25-3.3-1.37-5.94-5.32-5.81-3.8.12-5.17,2.57-5.19,5.97-.06,8.82-.04,17.63-.05,26.45,0,1.25,0,2.5,0,3.11Z"/>
    <path class="cls-3" d="M234.84,201.85c-3.16,0-6.33-.15-9.48.04-3.13.18-4-1.13-3.85-4.11.23-4.48,0-8.98.12-13.47.09-3.48-1.42-5.31-4.94-5.41-3.62-.1-5.1,1.91-5.12,5.26-.03,4.66-.19,9.33.07,13.97.18,3.18-1.02,3.84-3.99,3.86-12.04.09-12.06.19-12.24-11.99-.07-4.82.19-9.59,1.12-14.37,3.35-17.32,18-23.45,33.9-21.66,1.88.21,1.48,1.27,1.32,2.42-.39,2.79-.89,5.58-1.07,8.38-.26,4.09,2.64,6.71,6.51,6.13,7.74-1.16,15.1,4.18,16.44,11.98.51,2.99.41,6.01-.27,8.94-1.83,7.92-4.79,10.13-13.04,10.08-1.83,0-3.66,0-5.49,0,0-.02,0-.04,0-.06Z"/>
    <path class="cls-2" d="M73.6,177.49c0-5.82-.04-11.64,0-17.46.07-9.33,4.91-14.73,13.49-15.1,11.44-.49,18.02,4.09,18.41,14.04.51,13.11.09,26.26.13,39.39,0,2.59-1.17,3.52-3.65,3.51-8.31-.06-16.62-.12-24.93.01-3.03.05-3.54-1.35-3.49-3.95.13-6.81.04-13.63.04-20.45Z"/>
    <path class="cls-3" d="M158.18,140.05c-2.65.23-4.66.23-4.56-3.41.1-3.78,2.66-2.56,4.53-2.73,2.07-.2,3.81-.19,3.8,2.94,0,3.14-1.34,3.7-3.77,3.19Z"/>
  </g>
</svg>