<?xml version="1.0" encoding="UTF-8"?>
<svg id="Layer_2" data-name="Layer 2" xmlns="http://www.w3.org/2000/svg" viewBox="0 0 1985.3 384">
  <defs>
    <style>
      .cls-1 {
        fill: #e78a33;
        stroke-width: 0px;
      }
    </style>
  </defs>
  <g id="Layer_1-2" data-name="Layer 1">
    <g>
      <path class="cls-1" d="M1414.62,350.02c17.39-.51,32.8-5.38,45.74-16.66,13.4-11.68,16.57-30.95,8.19-46.81-3.69-6.98-9.02-12.17-16.36-14.81-7.7-2.77-15.59-5.1-23.51-7.2-15.87-4.21-31.87-7.94-47.7-12.26-7.24-1.98-14.27-4.75-21.3-7.41-20.25-7.67-29.35-23.35-31.58-44.06-4.88-45.32,28.43-79.23,64.79-87.51,8.66-1.97,17.57-2.84,26.4-4.01,4.8-.64,9.4-.3,13.5,3.11,1.27,1.06,3.9,1.21,5.7.81,9.24-2.06,17.59.9,25.95,4.06,1.93.73,3.55,4.79,3.11,7-.99,4.9-3.46,9.05-7.06,12.24-3.54,3.14-7.47,6.01-11.66,8.17-2.19,1.13-5.31.47-8.01.62-4.75-5.52-9.11-2.49-14.15-.06-2.79,1.35-6.73.21-10.14.43-20.16,1.29-34.78,11.28-44.21,28.89-4.5,8.41-4.08,17.14.08,25.67,6.56,13.46,18.21,20.15,32.15,23.06,9.36,1.95,18.95,2.81,28.45,4.02,6.35.81,8.22-1.51,7.17-7.96-.87-5.34-1.41-10.73-2.01-16.11-.17-1.5,2.03-4.42,3.41-4.64,3.38-.54,6.75-1.15,10.15-1.47,11.14-1.03,21.39-4.81,30.82-10.56,5.21-3.18,10.37-6.82,14.54-11.22,9.48-10.01,17-21.46,21.32-34.72,1.26-3.88,2.13-7.89,2.98-11.89.81-3.81-1.46-9.07,2.99-11.07,3.52-1.58,8.01-1.21,12.07-1.31,4.03-.09,6.05,2.45,5.81,6.6-.04.68.09,1.38-.02,2.05-4.17,25.65-14.43,48.39-32.46,67.34-5.25,5.52-11.5,9.56-18.69,12.33-15.33,5.9-30.66,11.75-46.47,16.25-1.02.29-1.76,1.67-2.56,2.59-1.01,1.16.78,4.14,2.7,4.64,1.99.52,3.98,1.02,5.98,1.5,2.66.65,5.33,1.26,8,1.9,27.04,6.43,58.1,31.6,58.1,75.37,0,4.76-.32,9.53-.41,14.3,0,.51.48,1.43.85,1.49,1.23.21,2.85.61,3.69.03,1.65-1.13,3.06-2.75,4.25-4.4,9.76-13.5,21.98-24.37,35.75-33.58,3.98-2.67,7.93-5.38,11.86-8.13,3.62-2.53,5.26-5.79,4.86-10.46-.27-3.18,2.54-5.42,5.04-4.45,7.41,2.86,16.67.79,22.31,8.34-3.31,7.66-9.51,12.97-15.23,18.66-1.15,1.14-4.02.5-5.4-1.14-5.68-6.75-5.85-6.83-10.62-3.7-19.77,12.95-35.93,29.48-48.54,49.44-1.39,2.19-1.93,4.93-2.71,7.47-.41,1.34,2.17,4.79,3.43,4.51,4.55-1.04,9.09-1.11,13.72-.74,1.04.08,2.36-1.12,3.25-2.03.93-.95,1.6-2.21,2.22-3.41,11.9-23.27,32.87-33.73,56.67-40.2,2.25-.61,5.08,2.03,5.53,4.94.45,2.84-1.27,5.53-4.16,5.73-14.29,1.02-25.98,8.04-37.18,16.09-6.9,4.96-11.31,11.78-13.81,19.89-.67,2.19-.09,3.91,1.23,5.64,5.23,6.84,5.19,6.84-.35,10.16-4.7,2.81-9.32,5.74-14,8.59-1.7,1.03-4.22-.1-4.63-1.97-1.6-7.33-3.14-14.68-4.89-21.98-.48-1.99-1.84-3.51-4.16-3.82-2.57-.34-5.47,1.16-6.71,3.46-2.95,5.47-5.14,11.17-5.63,17.45-.16,2.04-.29,4.19-1.04,6.04-.38.95-2.04,1.52-3.23,1.97-1.49.56-2.97-.24-2.88-1.9.31-5.42,1.09-10.81,1.36-16.23.04-.85-1.55-1.91-2.56-2.63-.44-.32-1.54-.28-1.98.06-2.67,2.05-5.36,4.1-7.8,6.41-7.56,7.19-16.35,12.27-26,16.15-31.66,12.74-63.63,15.18-96.24,3.71-7.17-2.52-13.83-5.81-20.13-10.04-24.88-16.68-34.75-24.12-33.65-26.08,6.74-12.04,17.24-21.12,25.61-31.9,1.23-1.59,3.02-2.75,4.44-4.2,1.26-1.29,2.38-1.37,3.55-.05,3.17,3.56,6.58,6.95,9.39,10.77,1.03,1.4,1.6,4.52.76,5.69-4.79,6.63-.46,9.79,4.29,13.1,14.46,10.07,30.63,14.93,47.66,16.1Z"/>
      <path class="cls-1" d="M178.6,141.72c-.28-40.37-.56-80.74-.83-121.11-.04-5.47.01-10.95.07-16.42.02-1.86,2.05-4.19,3.72-4.19,8.17,0,16.35.05,24.52.11,1.63.01,3.68,2.39,3.73,4.27.33,13.68.77,27.36.9,41.04.58,60.22.92,120.43,1.69,180.65.2,15.73,1.25,31.42-.11,47.17-1.36,15.73-3.64,31.28-8.1,46.42-2.7,9.18-6.13,18.03-11.5,26.18-7.44,11.29-17.41,19.15-29.69,24.29-10.83,4.53-22.25,6.95-33.89,7.66-15.06.92-30.03-.01-44.92-3.02-24.12-4.86-42.25-18.81-57.21-37.3-7.92-9.79-11.48-21.71-12.41-34.25-.4-5.45-.2-10.94-.2-16.42-.01-42.43.02-84.87-.04-127.3,0-5.45-.18-10.93-.85-16.33-.21-1.66-2.04-3.52-3.62-4.5-1.66-1.02-3.94-.97-5.88-1.6-3.09-1.01-3.92-2.37-3.97-6.11-.02-1.37,0-2.74.07-4.1.25-4.76,1.87-6.84,5.62-6.84,14.36.01,28.73.09,43.09.17,1.8.01,4.29,2.08,4.32,3.57.12,4.79.25,9.57.25,14.36.02,50.65,0,101.29.04,151.94,0,5.46-.32,11.09.81,16.35,5.07,23.55,26.35,40.83,47.65,41.39,12.28.32,24.61.78,36.52-3.61,17.09-6.3,28.88-17.96,35.4-34.77,4.76-12.28,5.83-25.27,5.74-38.36-.29-43.11-.6-86.23-.9-129.34,0,0-.02,0-.03,0Z"/>
      <path class="cls-1" d="M789.49,262.23c.86-10.38,1.54-17.2,1.97-24.04.83-13.06.22-26-3.07-38.76-2.99-11.61-8.03-21.75-18.31-28.77-2.73-1.86-4.89-4.65-6.98-7.28-.68-.86-.65-2.64-.34-3.85.32-1.25,1.21-2.47,2.13-3.44,3.28-3.49,6.56-7,10.04-10.29,15.44-14.63,29.59-30.45,43.55-46.47,4.04-4.63,8.51-8.89,12.85-13.26,1.38-1.39,4.49-1.57,5.68-.41,5.39,5.25,10.77,10.51,16.1,15.82,1.67,1.66,1.91,5.45.51,7.64-1.46,2.29-2.74,4.83-4.65,6.69-6.39,6.18-12.93,12.21-19.61,18.09-5.13,4.52-10.62,8.63-15.81,13.1-2.05,1.77-3.79,3.93-5.53,6.03-2.7,3.25-2.91,8-.48,11.45,1.97,2.79,4.27,5.35,6.19,8.18,3.06,4.52,6,9.12,8.85,13.78,2.59,4.23,3.68,8.9,2.78,13.81-2.77,14.95-1.76,30.05-1.99,45.11-.22,14.39-.54,28.77-.78,43.15-.22,13.11-3.24,25.81-5.76,38.57-1.36,6.87-4.47,12.86-9.87,17.59-4.13,3.6-8.09,7.4-12.01,11.23-12.45,12.13-27.67,17.82-44.72,17.53-13.66-.23-27.37-1.51-40.92-3.37-11.24-1.54-20.16-8.28-27.88-16.33-3.78-3.95-7.04-8.39-10.52-12.62-7.17-8.72-11.16-18.79-12.45-29.93-.55-4.75-.78-9.55-.93-14.34-.3-9.58-.55-19.16-.59-28.74-.02-6.15.2-12.31.61-18.45.76-11.41,5.28-21.17,13.6-29.07,7.95-7.55,15.95-15.04,23.92-22.57,5.97-5.64,12.01-11.22,17.88-16.97,4.27-4.18,5.15-9.48,4.22-15.19-2.32-14.23-17.56-26.75-36.14-19.16-4.79,1.96-6.22,6.96-3.34,11.76.7,1.17,1.66,2.17,2.5,3.26.42.54.96,1.05,1.18,1.67,1,2.73.83,5.6-.91,7.79-1.65,2.08-3.91,3.77-6.16,5.25-2.47,1.63-5.91,1.38-7.65-.36-3.86-3.88-7.6-7.88-11.38-11.82-4.27-4.45-8.37-9.07-12.85-13.3-6.83-6.45-5.43-11.36,2.17-16.45,15.84-10.62,33.56-15.33,52.51-15,7.5.13,15.07,1.06,22.45,2.45,13.96,2.64,23.64,10.87,27.64,24.58,6.62,22.76,2.76,43.35-14.13,60.77-7.15,7.38-14.37,14.7-21.5,22.1-2.85,2.96-5.48,6.14-8.37,9.06-25.67,25.93-20.16,63.48-6.57,85.63,10.66,17.37,27.26,24.71,47.15,23.21,19.35-1.46,33.14-12,41.21-29.62,3.46-7.56,4.64-15.69,4.53-24.04-.15-11.64-.04-23.29-.04-31.4Z"/>
      <path class="cls-1" d="M1182.37,372.04c-18.17.54-32.36-1.01-46.32-5.13-22.42-6.62-36.61-21.06-41.31-43.92-3.73-18.16-4.47-36.68-3.71-55.22.15-3.56,3.26-6.6,6.52-6.74.68-.03,1.37-.14,2.05-.11,30.77,1.64,27.65-5.99,26.83,27.04-.12,4.79-.13,9.59-.32,14.38-.33,8.47,2.27,16.18,5.85,23.68,6.16,12.89,16.68,19.96,30.56,21.25,16.45,1.53,33.01.76,48.95-3.77,16.46-4.68,29.19-14.73,37.16-30.22,5.69-11.06,5.93-22.38,1-33.71-5.12-11.75-13.38-20.57-25.24-25.82-8.86-3.92-18.04-6.5-27.79-6.57-5.48-.04-10.96.11-16.44.23-27.58.63-52.65-7.83-76.08-21.6-5.2-3.06-9.56-7.7-13.92-12.01-3.96-3.91-6.48-8.95-7.47-14.4-2.63-14.55-1.69-28.76,6.06-41.77,13.48-22.63,33.25-35.73,59.54-39.06,12.38-1.57,24.65.03,36.92.62,20.57.99,40.91,3.74,60.54,10.46,7.15,2.45,14.16,5.08,20.45,9.4,4.06,2.79,5.1,7.08,2.08,10.43-4.13,4.57-8.34,9.08-12.72,13.41-3.96,3.91-8.26,4.47-12.88.64-13.85-11.46-30.48-15.15-47.52-17.59-16.64-2.39-32.75.31-48.34,6.47-9.87,3.9-17.55,10.62-23.99,18.78-6.85,8.68-6.4,19.91.62,28.34,11.32,13.62,25.77,19.94,43.45,18.76,4.1-.27,8.21-.61,12.27-1.17,15.91-2.21,31.44.02,46.8,4.04,14.17,3.7,26.78,10.54,37.74,20.14,12.89,11.29,20.37,25.73,22.09,42.78,1.12,11.12-1.8,21.82-6.06,31.99-7.07,16.88-18.11,30.45-34.21,39.71-15.67,9.01-32.11,15.24-50.44,15.61-5.48.11-10.95.54-12.72.64Z"/>
      <path class="cls-1" d="M1785.38,256.24c0-32.18,0-64.35,0-96.53,0-4.11-.17-8.21-.17-12.32,0-5.52-2.86-8.63-7.82-10.71-4-1.68-4.52-4.39-3.17-8.26,1.03-2.97,3.4-4.82,6.04-4.74,11.61.36,23.22,1.13,34.81,1.98.88.06,2.32,1.91,2.33,2.95.35,23.26.67,46.52.72,69.79.06,24.64.08,49.29-.32,73.93-.55,34.65,26.7,62.74,55.53,70.79,26.9,7.51,54.48-5.63,68.09-23.11,4.68-6.01,7.68-12.89,9.05-20.46,1.71-9.48,2.08-19.02,1.94-28.63-.19-12.99.12-25.99-.08-38.99-.45-29.42-1.1-58.84-1.64-88.26-.11-6.14-.2-12.29,0-18.43.03-1,1.58-2.77,2.48-2.8,9.55-.31,19.12-.37,28.68-.43,1.68-.01,3.37,2.23,3.38,4.41.05,10.27.09,20.53.08,30.8-.05,43.81.11,87.62-1.76,131.4-.29,6.83-.7,13.67-1.41,20.47-2.12,20.22-11.2,36.18-28.51,47.51-18.17,11.89-37.47,19.16-59.56,19.31-18.73.12-34.81-6.01-49.4-17.08-4.35-3.3-8.46-6.93-12.79-10.27-3.25-2.51-9.17-.3-9.72,3.65-.75,5.39-1.09,10.84-1.92,16.22-.16,1.02-1.76,2.55-2.74,2.58-9.51.36-19.02.53-28.53.51-.99,0-2.59-1.47-2.83-2.5-.61-2.6-.8-5.35-.8-8.04-.05-34.91-.03-69.83-.03-104.74.03,0,.06,0,.09,0Z"/>
      <path class="cls-1" d="M352.06,376.43c-4.34-.19-12.56-.27-20.72-1-11.77-1.06-22.61-5.02-32.41-11.74-10.72-7.34-21.52-14.56-32.27-21.86-2.82-1.91-3.35-4.39-1.28-6.85,7.49-8.88,14.98-17.77,22.64-26.5,4.59-5.24,6.95-4.94,11.14.55,2.66,3.49,3.99,6.98,1.87,11.31-1.31,2.69-.4,5.21,1.54,7.44,10.48,11.99,24.06,17.76,39.56,19.21,8.16.77,16.4,1.12,24.59.97,22.85-.4,42.4-15.55,48.38-37.48,6.19-22.73-7.61-42.44-25.63-46.81-10.63-2.58-21.24-5.33-31.97-7.41-17.54-3.4-34.56-8.17-50.51-16.43-3.62-1.87-7.61-3.05-11.45-4.49-9.73-3.64-15.87-11.05-18.67-20.48-3.7-12.46-5.76-25.39-4.43-38.51.41-4.01,1.25-8.2,2.96-11.81,7.13-15.05,17.19-27.89,30.37-38.18,8.81-6.88,18.79-11.14,29.73-13.11,14.36-2.6,28.73-2,42.78,1.5,21.44,5.34,41.24,14.48,58.94,27.88.53.4.94.97,1.44,1.41,1.61,1.39,1.71,6,0,7.64-3.43,3.32-6.72,6.82-10.45,9.77-7.87,6.24-10.44,6.06-19.65-.37-18.84-13.18-18.86-12.97-41.16-15.44-11.75-1.3-23.19-.03-34.67,2.08-4.25.78-7.37,3.1-10.54,5.84-8.28,7.12-12.07,16.47-13.61,26.84-1.6,10.79.7,20.19,10.18,27.18,4.97,3.67,9.73,7.33,15.61,9.58,10.24,3.92,20.47,7.38,31.51,8.65,13.57,1.56,27.03,4.07,40.28,7.58,5.37,1.43,10.11,3.76,14.74,6.87,9.81,6.59,17.47,15.2,24.71,24.33,9.53,12.02,12.49,25.58,9.54,40.52-1.19,6.02-2.19,12.09-3.71,18.03-4.25,16.56-12.84,29.82-28.2,38.53-13.37,7.59-27.54,11.95-42.72,13.22-8.18.68-16.39.91-28.46,1.54Z"/>
      <path class="cls-1" d="M1651.28,373.17c-8.88-.36-17.78-.54-26.64-1.13-6.1-.4-9.56-4.4-9.81-11-.18-4.78-.12-9.58.1-14.36.22-4.77,3.43-7.78,7.88-7.48,4.08.28,8.24.43,12.2,1.35,9.71,2.26,19.23,1.02,28.34-2.05,14.38-4.85,25.12-13.79,28.49-29.51,3.34-15.57-4.17-31.03-18.7-37.08-7.53-3.13-15.53-5.21-23.44-7.31-15.85-4.21-31.85-7.89-47.67-12.22-7.89-2.16-15.55-5.21-23.26-8.01-12.4-4.51-20.18-13.37-24.79-25.65-9.03-24.08-7.56-47.21,6.88-68.59,16.33-24.17,38.92-37.94,68.82-38.08,11.03-.05,21.77,1.48,32.41,4.48,18.64,5.26,35.75,13.58,51.6,24.6,1.12.78,2.17,1.66,3.22,2.53,3.92,3.25,4.57,9.28,1.35,12.79-5.12,5.58-10.85,10.39-17.55,14.02-3.43,1.86-6.62,1.36-9.55-.69-5.61-3.92-11.11-7.98-16.56-12.12-5.56-4.23-11.79-6.74-18.59-8.22-14.17-3.08-28.26-4.32-42.74-1.62-12.1,2.25-19.9,13.42-21.62,22.17-4.42,22.44,8,42.75,30.19,49.09,6.56,1.87,13.36,2.95,20.06,4.32,13.4,2.74,26.78,5.57,40.22,8.09,11.81,2.22,21.92,7.72,30.62,15.73,5.01,4.62,9.61,9.74,13.95,15.01,18.19,22.1,19.04,58.09,2.14,82.61-8.09,11.74-18.78,19.4-32.76,23.06-14.75,3.86-29.67,4.8-44.78,5.28Z"/>
      <path class="cls-1" d="M987.96,279.12c.59-21.55,1.28-40.7,1.57-59.86.16-10.94-.07-21.9-.58-32.84-.97-20.75-17.93-34.1-32.6-37.79-7.35-1.85-14.83-2.53-22.4-2.27-11.41.39-21.38,4.26-29.57,12.35-3.41,3.36-6.68,6.86-10.12,10.19-2.98,2.88-7.9,2.95-11.19,0-3.55-3.19-6.94-6.58-10.23-10.04-2.65-2.79-2.62-8.01-.09-11.4,5.8-7.77,12.79-14.34,21.2-19.11,31.74-18,63.85-18.92,95.58-.39,19.49,11.38,30.82,28.98,33.51,51.42,2.03,16.97,2.69,33.97,1.57,51.2-2.43,37.55-5.87,75.08-5.08,112.8.14,6.8-.44,13.67-1.38,20.41-.46,3.36-2.8,6.38-6.43,7.35-7.48,2-14.93,1.25-22.2-1.08-1.05-.34-2.13-1.92-2.38-3.09-.56-2.64-.85-5.4-.83-8.1.17-17.8.37-35.59.72-53.39.18-9.58.67-19.15.93-26.34Z"/>
      <path class="cls-1" d="M553.63,329.89c-9.52-.48-19.7-1.09-29.89-1.49-12.44-.49-20.1-7.92-24.93-18.23-3.76-8.01-5.31-16.86-4.35-25.86.11-1,1.62-2.63,2.5-2.64,7.47-.13,14.95-.05,22.42.23,1.03.04,2.69,1.42,2.87,2.4.59,3.33.42,6.79.97,10.14.99,6.05,5.2,9.38,10.69,11.1,2.55.8,5.36,1.15,8.03,1.05,8.15-.32,16.28-.97,24.42-1.46,6.78-.41,13.55-.84,20.34-1.13,2.82-.12,4.67,2.08,4.75,5.31.05,2.04.06,4.08.02,6.12-.21,11.87-.73,12.44-12.68,13.18-8.14.5-16.29.84-25.14,1.29Z"/>
      <path class="cls-1" d="M552.24,208.92c-11.43-.59-22.3-1.16-33.17-1.72-4.28-.22-7.69-2.24-10.94-4.89-6.02-4.91-9.82-11.13-11.98-18.52-1.94-6.64-2.55-13.35-1.59-20.16.14-1.02,1.67-2.57,2.61-2.62,6.78-.33,13.58-.55,20.35-.27,1.49.06,3.64,2.04,4.16,3.59.85,2.49.5,5.37.85,8.06.89,6.9,5.14,10.98,11.56,12.72,3.22.87,6.69,1.24,10.02,1.12,6.11-.22,12.2-.94,18.3-1.49,5.42-.49,10.82-1.21,16.25-1.52,12.67-.71,13.52.27,12.65,13.77-.13,2.03-.44,4.07-.91,6.04-.5,2.11-1.93,3.77-4.1,3.91-11.52.77-23.06,1.37-34.06,1.99Z"/>
      <path class="cls-1" d="M1436.75,172.08c0-1.8-.01-2.48,0-3.16.13-5.76,1.57-7.71,6.41-8.48,4.01-.64,8.1-.9,12.06-1.8,16.08-3.65,27.21-15.81,29.7-32.24.4-2.67.17-5.54,1.08-8.01.59-1.61,2.57-3.48,4.18-3.77,3.26-.58,6.71-.3,10.07-.12,2.47.13,5.15,3.31,5.01,5.54-.04.68.07,1.39-.08,2.03-7.24,31.17-25.63,51.77-57.05,59.87-1.92.49-4.04.24-6.07.25-2.45.01-5.16-2.68-5.28-5.16-.03-.67-.16-1.35-.15-2.02.02-1.36.11-2.71.13-2.95Z"/>
      <path class="cls-1" d="M1595.31,331.01c-1.23,0,.86-.3,2.79.13.92.2,2.28,1.87,2.17,2.71-.61,4.66-1.57,9.27-2.5,13.88-.4,1.99-2.25,2.6-4.88,1.57-.62-.24-1.16-.71-1.78-.94-4.46-1.62-6.89-1.11-8.48,2.08-2.39,4.82-4.61,9.73-6.84,14.63-.82,1.8-1.19,3.88-2.32,5.44-.59.81-2.49,1.25-3.56.97-.91-.24-2.28-2.03-2.06-2.68,1.9-5.73,4.15-11.35,6.22-17.02,2.22-6.1,8.07-10.84,6.81-18.32-.07-.44,1.95-1.64,3.09-1.81,2.66-.38,5.38-.35,11.34-.64Z"/>
    </g>
  </g>
</svg>