<?xml version="1.0" encoding="UTF-8"?>
<svg id="Layer_2" data-name="Layer 2" xmlns="http://www.w3.org/2000/svg" viewBox="0 0 653.58 661.74">
  <defs>
    <style>
      .cls-1 {
        fill: #e78a33;
        stroke-width: 0px;
      }
    </style>
  </defs>
  <g id="Layer_1-2" data-name="Layer 1">
    <g>
      <path class="cls-1" d="M459.01,130.47c-.01,16.56-3.08,32.55-9.51,47.8-3.5,8.28-7.86,16.15-12.83,23.7-4.48,6.81-9.86,12.82-15.43,18.71-1.69,1.79-2.39,1.61-3.39-.55-7.01-15.01-18.67-23.76-35.14-25.89-12.11-1.57-22.71,2.09-32.4,9.28-8.18,6.07-13,14.21-15.51,23.83-1.81,6.94-1.64,14.07-.11,21,.54,2.44,1.53,5.02,2.74,7.4,1.55,3.04.73,4.17-2.63,4.55-14.56,1.62-28.93-.02-43.06-3.19-7.93-1.77-15.71-4.34-23.21-7.82-5.91-2.74-11.8-5.47-17.38-8.82-15.21-9.12-28.14-20.78-38.62-35.13-10.59-14.5-17.98-30.51-21.76-48-2.46-11.38-3.01-22.99-2.44-34.72,1.04-21.38,7.79-40.83,18.68-58.97,4.4-7.34,9.98-13.84,15.86-20.08,6.74-7.16,14.23-13.43,22.22-19.09,6.82-4.83,14.14-8.85,21.86-12.19,8.29-3.59,16.82-6.46,25.57-8.52,5.45-1.28,11.09-1.89,16.67-2.67,9.38-1.31,18.7-1.41,28.07-.46,16.26,1.65,31.8,5.91,46.57,12.94,8.98,4.28,17.56,9.35,25.18,15.68,10.32,8.57,19.73,18.09,27.33,29.29,4.73,6.98,9,14.24,12.22,21.96,3.91,9.35,7.16,18.98,8.72,29.1,1.07,6.93,1.86,13.84,1.74,20.86Z"/>
      <path class="cls-1" d="M499.55,412.48c-10.25.25-20.44-.6-30.48-2.63-20.34-4.1-39.26-11.72-56.52-23.33-2.21-1.48-4.34-3.05-6.42-4.7-1.3-1.03-1.35-1.93-.69-3.18,1.52-2.86,3.01-5.75,4.58-8.58.69-1.25,1.82-1.68,3.32-1.78,9.88-.63,19.76-1.4,29.4-3.75,10.58-2.58,20.98-5.87,30.67-10.95,2.53-1.32,4.21-1.22,6.23.89,8.37,8.76,18.63,13.28,30.81,13.69,9.56.32,17.9-2.66,25.79-7.84,8.64-5.67,13.91-13.69,17.05-23.24,3.05-9.29,2.77-18.63-.55-27.86-2.5-6.93-6.4-12.93-11.94-17.79-1.74-1.53-1.89-3.11-.95-5.09,5.06-10.65,8.43-21.88,10.33-33.45,2.15-13.1,2.38-26.28.41-39.51-2.06-13.82-5.8-27.09-11.94-39.63-9.28-18.95-22.05-35.12-38.73-48.14-2.62-2.04-5.31-4-7.96-6-.46-.35-1.15-.74-1-1.32.21-.85,1.11-.51,1.71-.53,11.99-.5,23.88.26,35.73,2.38,17.94,3.21,34.85,9.2,50.5,18.45,24.41,14.43,43.86,33.79,57.38,58.89,6.82,12.66,11.68,26.03,14.39,40.12,2.15,11.19,3.44,22.52,2.72,33.97-2.14,33.7-14.02,63.43-36.33,88.91-8.3,9.48-17.79,17.53-28.11,24.78-10.89,7.66-22.73,13.22-35.04,17.96-4.21,1.62-8.5,3.06-12.84,4.27-3.56.99-7.23,1.61-10.88,2.22-7.18,1.19-14.36,2.44-21.65,2.73-2.99.12-5.99.02-8.98.02Z"/>
      <path class="cls-1" d="M161.28,117.98c-5.18,4.21-10.54,7.98-15.49,12.29-10.82,9.42-19.79,20.35-27.38,32.48-7.26,11.6-12.2,24.17-15.63,37.35-1.3,4.98-1.99,10.1-2.73,15.2-1.8,12.46-1.33,24.92.66,37.25,1.83,11.3,4.84,22.38,9.9,32.76,1.86,3.81,1.53,4.82-1.6,7.64-2.78,2.5-4.68,5.74-6.6,8.94-6.08,10.15-7.23,21.1-4.76,32.43,2.03,9.34,6.98,17.07,14.34,23.21,10.98,9.17,23.58,12.3,37.52,9.53,8.67-1.72,16.16-5.86,22.42-12.2,3.45-3.5,2.27-3.2,6.64-1.12,6.84,3.25,13.95,5.68,21.13,8.07,13.19,4.38,26.83,5.38,40.53,6.08,1.46.07,2.49.39,3.22,1.79,1.55,2.94,3.24,5.8,4.91,8.67,1.02,1.74.7,2.97-.97,4.19-12.16,8.88-25.29,15.95-39.45,20.99-10.68,3.8-21.65,6.35-32.95,7.88-10.29,1.39-20.55,1.57-30.83,1.17-7.2-.28-14.34-1.6-21.45-2.91-11.65-2.15-22.77-5.98-33.54-10.74-7.34-3.25-14.37-7.2-21.14-11.57-7.41-4.79-14.39-10.13-20.81-16.16-11.52-10.82-21.22-23.08-28.85-36.97-7.88-14.34-13.03-29.59-15.92-45.66-2.01-11.17-3.11-22.44-2-33.71.57-5.8,1.55-11.66,2.78-17.41,2.21-10.33,5.28-20.37,9.54-30.06,5.02-11.39,11.44-21.91,19.17-31.62,8.9-11.19,19.1-21.01,30.81-29.26,13.19-9.3,27.38-16.55,42.79-21.44,14.59-4.63,29.46-7.28,44.8-7.5,3.65-.05,7.24.22,10.95.44Z"/>
      <path class="cls-1" d="M105.97,228.56c-.18-7.61.98-17.21,3.27-26.58,3.32-13.61,8.5-26.48,16.39-38.22,4.04-6,8.05-12,13.08-17.21,2.97-3.08,5.79-6.32,9.15-9.02,1.87-1.49,3.33-3.43,5.29-4.86,1.39-1.01,2.39-2.53,4.36-2.66.47-.03.98-.62,1.34-1.06,3.64-4.46,8.82-6.75,13.61-9.56,1.82-1.07,3.41-2.55,5.68-2.97,2.17-.4,3.03.29,3.02,2.32-.01,2.98-.03,5.96-.17,8.93-.34,7.07.43,14.07,1.23,21.07.6,5.28,1.57,10.53,3.05,15.58,1.95,6.66,4.3,13.24,7.09,19.63,2.94,6.73,6.53,13.12,10.38,19.34,2.21,3.58,5.07,6.75,7.49,10.21,5.2,7.42,11.95,13.36,18.73,19.19,10.13,8.72,21.27,15.98,33.55,21.41,6.88,3.05,13.92,5.65,21.18,7.63,11.82,3.22,23.87,5.14,36.11,5.2,7.12.03,14.32.24,21.4-1.13,1.63-.32,2.9.27,4.02,1.41,5.56,5.64,11.94,10.01,19.59,12.35,1.58.48,2.01,1.21,1.25,2.94-4.44,10.11-10.2,19.39-17,28.05-1.12,1.43-2.03,1.47-3.48.39-12.07-8.98-29.05-7.93-40.46,2.05-9.13,7.98-12.79,18-12.33,29.83.03.74.24,1.54-.67,1.93-.84.36-1.43-.15-1.98-.67-3.6-3.45-7-7.08-10.75-10.39-11.39-10.08-22.96-19.92-35.56-28.48-6.44-4.37-12.88-8.76-19.8-12.31-6.61-3.39-13.08-7.34-21.06-6.59-6.96.65-13.05,2.93-17.59,8.5-3.01,3.69-3.71,9.73-1.05,13.4,1.21,1.67,2.87,3.18,4.47,4.56,4.66,4.04,9.33,8.11,14.2,11.85,6.7,5.15,12.37,11.27,18.29,17.19,4.93,4.93,9.4,10.24,13.6,15.78.63.83,1.58,1.72.81,2.88-.67,1.03-1.8.97-2.93.9-9.64-.68-19.09-2.2-28.43-4.84-7.84-2.22-15.44-4.95-22.77-8.42-2.45-1.16-4.57-3.01-7.03-4.14-2.85-1.31-5.6-2.76-8.29-4.36-.85-.51-1.87-.82-1.93-2.06-.01-.31.09-.75-.42-.7-3,.29-4.68-2.05-6.56-3.62-3.22-2.69-6.69-5.14-9.65-8.08-9.14-9.1-17.76-18.67-24.32-29.91-6.23-10.68-10.84-22.03-13.94-33.94-2.6-10.01-3.59-20.28-3.45-32.74Z"/>
      <path class="cls-1" d="M545.96,231.93c-.52,32.11-11.38,60.21-32.73,84.23-15.57,17.51-34.55,29.98-56.57,37.76-12.12,4.28-24.67,6.74-37.52,7.55-.87.06-2.09.45-2.56-.41-.54-.97.5-1.79,1.06-2.56,9.86-13.62,21.66-25.38,34.44-36.23,4.3-3.65,8.71-7.17,13.12-10.68,6.99-5.55,6.67-14.88-1-20.23-8.64-6.02-18.01-6.4-27.45-2.16-10.13,4.54-19.41,10.62-28.66,16.74-5.17,3.42-10.12,7.16-15.07,10.84-5.2,3.86-10.22,8.07-14.83,12.72-2.28,2.29-4.81,4.33-7.34,6.36-1.57,1.26-2.97,2.65-4.28,4.16-.79.91-1.61,2.63-2.82,1.89-1.22-.74-2.8-1.79-2.8-3.71,0-2.75-.36-5.43-.94-8.14-.67-3.14-1.78-5.92-3.67-8.54-1.15-1.59-2.26-3.64-2.27-5.49-.01-1.96,1.65-3.55,3.41-4.88,1.52-1.15,2.08-3.29,3.12-4.95,2.66-4.26,5.09-8.65,7.73-12.91,1.84-2.97,2.91-6.18,4.18-9.35.52-1.31,1.63-1.69,3.04-1.69,6.11,0,12.13-.24,17.88-2.86,7.69-3.5,14.64-7.96,19.62-14.86,4.82-6.67,7.78-14.1,8.73-22.46.41-3.66-.1-7.09-.28-10.63-.07-1.31.27-2.24,1.28-3.26,4.75-4.82,9.78-9.45,13.73-14.93,2.92-4.06,6.1-7.99,8.45-12.48,2.14-4.07,4.86-7.84,6.96-11.93,1.65-3.22,2.96-6.65,4.07-10.11,1.8-5.61,4.01-11.08,5.22-16.88,1.74-8.29,3.11-16.59,3.52-25.08.36-7.44-.15-14.78-.75-22.16-.19-2.38.57-2.92,2.71-1.95,17.19,7.74,32.36,18.33,45.09,32.29,14.04,15.41,24.11,33.01,29.6,53.22,3,11.06,4.57,22.28,4.57,33.75Z"/>
      <path class="cls-1" d="M365.92,369.6c-.14,6.93-.47,15.78-1.91,24.6-1.57,9.61-4.05,18.92-7.38,28.03-6.26,17.11-15.64,32.34-27.58,46.06-8.45,9.71-17.98,18.19-28.8,25.12-8.85,5.68-18.62,9.25-28.84,11.77-6.89,1.7-13.87,2.68-20.88,3.2-4.75.35-9.44-.86-13.17-4.27-2.83-2.59-3.01-5.38-.59-8.34,7.85-9.62,14.76-19.87,19.94-31.18,3.63-7.92,6.18-16.19,7.81-24.81,1.86-9.84,2.05-19.66.63-29.48-1.51-10.47-4.65-20.52-9.12-30.13-6.1-13.12-14.12-24.99-23.53-35.92-5.25-6.11-10.78-11.96-16.65-17.52-7.37-6.98-15.2-13.39-23.14-19.68-4.47-3.54-4.43-7.2.27-10.45,6.4-4.42,13.35-4.95,20.33-1.74,15.78,7.26,29.95,17.1,43.53,27.83,9.98,7.89,19.38,16.43,28.31,25.48,5.78,5.85,11.23,12.01,16.48,18.34,5.17,6.23,12.15,8.88,19.93,9.98,7.09,1,13.87.06,20.45-2.75,4.9-2.09,8.49-5.64,11.82-9.65,3.02-3.64,6.26-7.1,9.4-10.65,1.01-1.15,1.54-1.06,1.81.52.78,4.53.6,9.12.89,15.63Z"/>
      <path class="cls-1" d="M448.73,293.07c4.5-.26,8.59.89,12.07,3.76,4.03,3.33,4.03,6.84,0,10.14-5.79,4.74-11.63,9.39-17.23,14.37-16.45,14.62-30.92,30.9-41.73,50.18-5.24,9.35-9.21,19.22-11.73,29.71-2.35,9.79-3.31,19.69-2.47,29.64,1.26,14.91,5.9,28.86,13.22,41.93,4.27,7.63,9.03,14.97,14.79,21.53,4.82,5.5,2.08,9.95-3.31,12.31-3.64,1.6-7.58,2.04-11.68,1.61-9.03-.93-17.94-2.43-26.55-5.25-12.74-4.18-24.38-10.4-34.5-19.32-2.67-2.35-4.91-5.19-8.08-6.96-1.39-.77-.28-1.32.18-1.89,3.85-4.68,7.83-9.24,11.43-14.15,9.86-13.45,17.16-28.18,22.17-44.03,2.34-7.41,3.97-15.01,5.2-22.73,1.65-10.42,1.92-20.85,1.67-31.33-.12-4.97-.66-9.94-1.58-14.83-.31-1.67.57-2.49,1.5-3.4,6.22-6.13,12.66-12.02,19.39-17.59,12.5-10.35,25.71-19.69,39.91-27.56,3.76-2.08,7.52-4.21,11.67-5.53,1.89-.6,3.79-.38,5.67-.61Z"/>
      <path class="cls-1" d="M377.87,275.7c-20.85.18-38.48-17.48-37.73-39.68.68-20.04,18.38-36.5,38.59-35.96,20.63.55,37.13,16.02,37.18,38.02.05,21.21-18.04,37.8-38.04,37.63Z"/>
      <path class="cls-1" d="M354.41,340.9c.02,12.74-8.24,24.33-20.9,27.66-11.13,2.92-22.2-.84-29.47-11.57-9.92-14.66-5.14-34.54,10.23-43.09,12.96-7.2,30.26-1.52,36.69,12,2.17,4.57,3.54,9.29,3.45,15Z"/>
      <path class="cls-1" d="M142.14,362.03c-15.35-.3-26.7-6.53-34.07-19.19-6.12-10.51-6.86-21.67-2.32-33.06,1.89-4.75,4.52-9.01,8.24-12.59,1.5-1.45,2.21-1.32,3.31.54,5.99,10.2,12.74,19.82,21.28,28.12,8.5,8.25,17.85,15.32,27.99,21.39,2.48,1.48,2.6,2,.56,4.06-6.07,6.12-13.47,9.45-22,10.37-1.24.13-2.47.29-2.98.35Z"/>
      <path class="cls-1" d="M509.84,361.73c-9.83-.3-18.15-4.02-25.15-10.92-1.55-1.53-1.64-2.31.26-3.47,7.96-4.85,15.24-10.6,22.33-16.65,8.06-6.87,14.58-15.01,20.79-23.48,2.55-3.47,4.4-7.32,6.56-11,.9-1.55,1.72-.71,2.55.04,4.78,4.33,8.35,9.54,10.24,15.67,4.69,15.21,1.39,28.64-10.14,39.6-7.56,7.19-16.89,10.54-27.43,10.2Z"/>
      <path class="cls-1" d="M136.04,562.71c7.97.88,15.08,3.69,20.35,10.09,3.8,4.61,4.41,11.08,1.34,16.1-4.58,7.5-9.44,14.84-14.15,22.26-.71,1.12-1.41,1.34-2.64.71-6.51-3.33-6.69-4-2.57-10.03,1.68-2.47,3.28-4.99,4.9-7.5.63-.98,1.04-2.02-.24-2.79-3.47-2.11-6.64-4.75-10.52-6.13-3.22-1.14-5.49-.22-6.99,2.74-1.25,2.47-.41,5.55,2.12,7.19,1.24.81,2.61,1.5,4.01,1.97,1.2.41,1.38.95.95,2.01-.43,1.08-.72,2.21-1.15,3.28-.42,1.05-1.13,1.54-2.36,1.18-4.96-1.43-9.28-3.91-11.79-8.5-2.84-5.19-1.64-10.22,1.97-14.6,3.14-3.81,7.18-4.9,12.07-3.59,5.02,1.35,9.1,4.33,13.49,6.82,1.25.71,2.56,2.65,4.12,1.19,1.6-1.51,2.16-3.75,1.68-5.99-.54-2.49-2.16-4.27-4.3-5.57-3.67-2.24-7.55-3.93-11.96-3.62-2.4.17-2.92-.88-2.46-2.93.09-.41.2-.82.21-1.23.06-2.57,1.37-3.53,3.9-3.05Z"/>
      <path class="cls-1" d="M436.04,623.39c-.09-2.15.98-3.95,1.4-5.88.25-1.13.68-2.25.79-3.39.35-3.85-1.22-5.11-4.75-3.67-1.7.69-2.55.47-3.13-1.34-1.79-5.56-2.46-4.55,2.66-6.39,2.03-.73,3.99-1.57,6.21-1.59,2.21-.02,3.91.91,5.08,2.62,2.28,3.35,3.55,7,2.09,11.06-1.48,4.11-1.4,8.02.5,12.05,2.06,4.37,4.72,5.83,9.09,4.4,4.3-1.41,6.08-4.69,4.67-9.21-.93-2.99-2.28-5.86-3.44-8.79-.7-1.77-1.92-2.51-3.88-2.36-2.74.22-4.01-1.16-3.52-3.94.6-3.35,1.45-6.65,2.22-9.96.52-2.26,2.51-2.65,4.29-3.31,1.53-.57,3.61-2.16,4.49-1.28,1.1,1.1-.36,3.17-.83,4.8-.52,1.83-.96,3.69-1.54,5.5-.4,1.25-.17,1.82,1.23,2,2.56.33,4.57,1.74,5.76,3.95,2.38,4.39,4.46,8.99,5.12,13.95.7,5.25-1.28,9.62-5.83,12.62-4.11,2.71-8.63,4.3-13.51,4.69-3.34.27-6.34-.71-8.9-3.07-3.97-3.67-5.09-8.56-6.27-13.45Z"/>
      <path class="cls-1" d="M179.87,631.36c-5.26-.22-10.11-3.41-12.99-9.37-.99-2.03-1.75-2.29-2.95-.45-.93,1.42-1.8,1.44-3.31.75-5.58-2.56-5.69-2.52-3.21-7.92,4.62-10.03,9.39-19.99,13.96-30.04.87-1.93,1.89-1.94,3.42-1.21.6.28,1.17.63,1.77.92,4.72,2.23,4.66,2.2,2.37,6.97-2.99,6.2-5.65,12.57-8.87,18.65-2.16,4.08,2.04,12.76,8.62,13.12,2.17.12,3.97-1.05,5.22-2.92,3.17-4.72,5-10.1,7.49-15.16,1.54-3.13,3.04-6.27,4.46-9.45.62-1.4,1.47-1.66,2.77-1.03,1.65.79,3.3,1.57,4.95,2.35,1.18.55,1.58,1.33.97,2.6-3.8,8.02-7.48,16.11-11.39,24.08-2.37,4.84-6.05,8.12-13.27,8.11Z"/>
      <path class="cls-1" d="M580.09,501.01c.43,3,.08,5.54-.07,8.08-.09,1.58-.29,3.15-.36,4.73-.07,1.57-.72,3.47.17,4.63,1.13,1.46,2.65-.41,4.08-.52,2.8-.2,5.53.13,8.05,1.23,5.78,2.52,11.45,5.31,17.21,7.87,1.84.82,1.71,1.51.53,2.87-4.68,5.41-4.62,5.38-11.01,2.52-4.39-1.97-8.62-4.35-13.24-5.76-4.18-1.28-6.25.56-6.82,4.84-.63,4.75.87,8.06,4.76,10.78,2.42,1.69,4.36,4.08,6.55,6.12,1.01.94.94,1.69.03,2.73-4.99,5.71-4.95,5.72-10.53.55-7.68-7.12-15.35-14.24-23.09-21.29-1.54-1.41-1.53-2.6-.21-4,.28-.3.6-.58.89-.87q3.98-4.07,8.2-.05c1.27,1.2,2.55,2.38,3.84,3.56.48.44.92,1.11,1.68.82.75-.29.66-1.09.7-1.73.28-4.73.78-9.47.7-14.2-.06-3.42.77-6.07,3.38-8.37,1.47-1.3,2.72-2.88,4.55-4.54Z"/>
      <path class="cls-1" d="M74.04,523.02c.03.5.02,1,.08,1.49.23,1.72-.19,2.72-2.23,2.39-2.2-.36-3.8.91-5.29,2.28-2.13,1.98-4.23,4-6.36,5.98-4.07,3.79-8.09,3.73-11.99-.18-.18-.18-.35-.35-.53-.53-3.68-3.66-3.66-3.88.34-7.22,1.09-.91,2.03-1.38,3.16-.03,1.1,1.31,2.33.98,3.47-.04,1.79-1.61,3.6-3.21,5.35-4.86,1.57-1.48,3.34-2.45,5.56-2.37,1.62.05,2.04-.79,1.75-2.22-.05-.24-.12-.49-.15-.73-.75-6.16-.65-6.22,5.12-6.78,12.82-1.24,23.93,10.75,23.72,20.63-.09,4.03-1.65,7.5-4.44,10.25-5.97,5.9-12.15,11.59-18.21,17.39-1.12,1.08-1.99,1.19-3.02-.13-.86-1.11-1.84-2.18-2.93-3.05-1.98-1.57-1.63-2.89.04-4.44,5.23-4.86,10.36-9.85,15.63-14.67,3.01-2.76,5.33-5.85,3.65-10.02-1.69-4.19-5.13-6.7-9.62-7.43-2.87-.47-3.18-.07-3.13,2.79,0,.5,0,1,0,1.5.01,0,.03,0,.04,0Z"/>
      <path class="cls-1" d="M381.33,637.67c.24-2.32-.32-4.94-1.33-7.41-2.35-5.75-8.2-7.81-14.91-5.27-2.96,1.12-5.83,2.48-8.08,4.82-1.14,1.18-1.79,1.18-2.71-.41-2.85-4.91-2.92-5.22,1.91-8.36,7.06-4.59,14.71-5.89,22.86-3.57,3.7,1.05,6.32,3.61,8.28,6.78,4.89,7.93,5.02,20.83-1.75,28.51-2.87,3.26-6.37,5.25-10.7,5.72-.74.08-1.49.14-2.23.26q-4.84.76-6.66-3.87c-1.12-2.86-2.25-5.71-3.35-8.58-.63-1.64-1.6-2.72-3.54-2.37-1.51.27-2.06-.53-2.31-1.89-.9-4.94-.63-5.35,4.29-6.06,4.57-.67,6.81.56,8.63,4.82,1.14,2.67,2.18,5.38,3.29,8.05.82,1.97,1.85,2.23,3.67,1.02,3.1-2.07,4.64-5.98,4.63-12.18Z"/>
      <path class="cls-1" d="M337.42,633.11c-.13-1.89-.27-4.96-.56-8.02-.38-4.09.83-7.7,3.02-11.07,1.22-1.88,2.5-3.73,3.67-5.64,1.82-2.95,1.82-6.13.09-7.86-1.74-1.74-5.43-1.9-8.18-.26-1.42.85-2.74,1.87-3.83,3.16-.5.59-1.02,1.01-1.88.36-2.99-2.23-3.23-4.77-.61-7.33,4.31-4.22,12.82-6.01,18.09-3.82,6.34,2.64,9.02,9.68,6.08,15.94-1.27,2.72-2.9,5.23-4.58,7.7-1.79,2.65-2.54,5.49-2.37,8.7.56,10.46.95,20.92,1.5,31.38.25,4.83.35,4.83-4.41,4.93q-5.07.11-5.15-5.08c-.12-7.31-1.05-14.59-.89-23.1Z"/>
      <path class="cls-1" d="M68.52,497.1c-4.21-1.47-4.42,2.43-5.71,4.62-.75,1.26-1.55,2.33-2.66,3.18-4.63,3.54-9.24,7.11-13.97,10.51-1.79,1.29-3.7,2.35-5.35,3.9-1.96,1.85-3.89,1.08-6.45-1.87-1.69-1.94-.85-3.21.72-4.6,2.81-2.48,5.97-4.45,9.08-6.49,1.83-1.2,2.69-2.2,1.44-4.51-2.16-4.01-4.64-7.59-8.65-9.95-2.17-1.28-4.13-.88-6.01.56-1.81,1.38-2.57,3.14-2.07,5.45.41,1.89.9,3.56,2.7,4.78,1.71,1.15,1.21,3.56-1,5.44-1.41,1.2-2.49.49-3.58-.74-1.37-1.55-2.79-3.03-3.96-4.77-1.8-2.66-2.33-5.74-2.44-8.71-.12-3.36,2.33-6.11,4.78-7.81,2.54-1.76,4.93-4.72,8.9-3.72,1.57.39,3.04.81,4.33,1.72,3.99,2.82,7.4,6.14,9.76,10.52.88,1.63,2.6,2.76,3.7,4.35.61.89,1.37.53,2.12-.09,3.94-3.25,4.43-7.84,1.5-12.12-2.43-3.54-5.81-5.84-9.46-7.8-2.17-1.17-2.13-2.37-.78-4.14,1.54-2.02,2.56-2.17,4.55-1.03,2.63,1.51,5.57,2.57,7.5,5.07,2.06,2.67,5.12,4.57,5.76,8.35.36,2.1,2.69,2.48,4.37,3.23,1.18.52,2.24,1.1,2.98,2.15.79,1.12,2.16,2.19,1.39,3.73-.73,1.47-2.26.43-3.48.76Z"/>
      <path class="cls-1" d="M306.73,661.62c-5.9.59-10.85-.98-15.02-4.08-2.38-1.77-3.93-4.94-4.53-7.87-.76-3.76.59-7.17,4.14-9.42,2.7-1.71,2.69-2.48.32-4.9-2.43-2.48-4.03-5.1-3.08-8.88.9-3.59,4.43-7.15,8.18-7.64,3.04-.4,6,.1,8.81,1.13,2.24.82,1.77,2.95,1.55,4.71-.24,1.87-1.52,2.1-3.16,1.66-1.12-.3-2.39-.48-3.44,0-1.46.67-4.02-.1-3.97,2.75.05,2.82,1.87,5.3,4.27,5.72,1.3.23,2.63.35,3.95.39,1.5.05,2.19.63,2.34,2.23.4,4.17.47,4.1-3.75,4.33-1.46.08-3.01,0-4.38.7-2.83,1.45-3.52,3.18-2.96,7.22.24,1.71,2.75,3.66,4.88,4.32,2.48.76,4.92.36,7.36.25,2.31-.11,5.35-3.35,5.91-5.67.88-3.62.55-7.32.89-10.98.44-4.79.71-9.59,1.02-14.39.1-1.61.9-2.47,2.51-2.46,4.2.04,7.86,1.6,5.63,6.71-.13.29-.14.65-.12.97.36,5.57-.62,11.09-.69,16.65-.05,3.95-.94,7.88-3.43,11.19-.49.65-.94,1.38-1.78,1.7-3.91,1.54-7.45,4.24-11.47,3.66Z"/>
      <path class="cls-1" d="M228.77,630.7c-.05-.91-.04-1.83-.15-2.74-.55-4.26-3.38-5.55-7.46-4.58-4.55,1.07-6.51,3.51-7.82,7.89-.86,2.89-1.24,6.12-3.12,8.78-1.23,1.74-2.38,2.19-4.07.82-.06-.05-.12-.11-.18-.17-1.07-1.1-4.27.05-3.5-2.7.46-1.65.65-3.36,1.18-5,1.18-3.69,1.88-7.56,3.35-11.13,1.98-4.81,2.84-9.92,4.62-14.77.2-.54.37-1.1.47-1.67.77-4.14,3.56-5.36,7.07-2.98,1.3.88,2.4,1.96,1.78,3.92-.86,2.71-1.43,5.51-2.28,8.23-.27.85-.24,1.36.39,1.96.79.76,1.17-.11,1.7-.35,5.1-2.23,10.2-4.45,15.27-6.72,1.64-.73,3.21-1.16,5-.46,1.53.6,3.17.94,4.75,1.42.73.22,1.52.54,1.59,1.38.08,1.01-.79,1.36-1.58,1.66-3.63,1.38-7.26,2.77-10.9,4.1-2.39.87-2.59,1.46-.81,3.25,2.48,2.49,3.5,5.54,3.7,8.96.32,5.39-.25,10.8.62,16.17.13.8.02,1.66-.1,2.48-.24,1.55-1.01,2.44-2.74,1.93-1.43-.42-2.9-.72-4.28-1.26-1.26-.5-1.78-1.61-1.84-3-.22-5.14-.5-10.28-.76-15.43.03,0,.06,0,.09,0Z"/>
      <path class="cls-1" d="M511.94,603.33c.85,4.58-1.69,8.4-5.04,10.89-2.61,1.94-5.57,3.82-8.73,5.23-2.53,1.12-5.03,1.85-7.61,1.74-7.12-.3-12.08-5.16-12.13-11.18-.01-1.42.89-2.46,1.13-3.78.51-2.88.25-3.78-2.62-3.93-2.59-.14-4.08-1.88-5.75-3.16-2.76-2.11-2.44-8.38-.09-11.2,2.15-2.57,4.97-4.02,7.86-5.39,2.63-1.25,5.32.26,5.71,3.15.25,1.84-1.37,2.32-2.66,2.79-1.67.61-2.92,1.4-3.52,3.27-.63,1.96-.24,3.89,1.01,4.97,2.04,1.77,4.48,1.42,6.39-.18,2.75-2.3,6.74-1.04,7.41,2.42.29,1.51-.9,1.89-2.11,2.21-2.53.67-5.18,3.72-5.28,5.91-.16,3.7,3.39,7.03,7.38,6.71,5.81-.46,10.69-4.47,10.15-11.04-.24-2.91-1.66-5.39-3.32-7.81-1.72-2.51-2.84-5.44-4.6-7.9-1.87-2.62-2.22-5.86-3.98-8.47-.22-.32-.37-.79-.33-1.16.11-1.01.94-2.02,1.7-1.86,2.07.43,3.47-3.37,5.73-.8.99,1.13,1.68,2.42,2.35,3.77,2.41,4.84,5.36,9.42,7.28,14.51.41,1.09,1.53,1.37,2.1,2.34,1.42,2.43,1.7,5,1.58,7.96Z"/>
      <path class="cls-1" d="M625.99,497.18c-.19-3.05-1.11-5.25-3.14-6.76-3.8-2.84-7.61-5.65-11.59-8.25-3.58-2.34-7.14-4.8-10.51-7.48-.29-.23-.64-.75-.56-1.01.72-2.3,2.53-3.83,4.22-5.36,1.12-1.02,2.23-.04,3.36.58,3.15,1.74,5.67,4.4,8.67,6.18,3.5,2.07,6.41,4.86,9.9,6.85,2.87,1.64,4.46,4.22,5.97,7.01,1.26,2.31,2.44,4.48,1.42,7.19-2.04,5.45-4.83,10.08-11.14,11.46-3.34.73-3.35,1.01-1.4,3.96.48.72.61,1.34.05,2.03-.73.9-1.48,1.78-2.18,2.7-1.41,1.85-3.09,1.96-4.72.5-3.69-3.31-8.19-5.43-12.08-8.46-4.46-3.47-9.37-6.36-13.63-10.12-.41-.36-1.06-.43-1.55-.71-1.18-.68-2.01-1.67-1.53-3.07.63-1.83,1.96-3.27,3.32-4.59.94-.92,2.09-.44,2.93.31,4.15,3.69,9.3,5.94,13.44,9.72,1.85,1.69,4.35,2.98,6.69,4.18,2.68,1.38,8.94-.2,10.83-2.83,1.08-1.5,2.91-2.5,3.22-4.03Z"/>
      <path class="cls-1" d="M541.06,577.81c-.91-5.48-3.01-10.33-7.66-13.72-1.06-.77-1.85-1.86-3.18-2.35-3.35-1.23-6.09-.28-8.65,1.99-1.92,1.71-4.07,1.36-5.54-.68-.48-.67-.65-1.32-.3-2.09,2.46-5.39,9.85-8.2,14.47-7.14,2.43.56,5.32.58,7.02,2.72,3.52,4.41,8.65,7.6,10.58,13.19,1.63,4.72,1.93,9.97.19,14.43-1.52,3.9-5.38,6.77-8.68,9.64-3.2,2.79-5.76.07-8.24-1.35-2.34-1.34-4.5-3.11-6.47-4.97-3.41-3.2-7.71-5.13-11.21-8.19-2.82-2.46-5.86-4.68-8.69-7.14-1.77-1.55-1.5-2.94.55-4.09,3.59-2.02,4.54-1.5,7.98.7,2.51,1.6,4.61,3.75,6.93,5.48,3.9,2.89,8.35,5.24,11.65,9.04,1.15,1.32,3.06,2.06,4.74,2.83,1.26.58,2.14-.38,2.85-1.33,1.55-2.06,1.64-4.45,1.64-6.94Z"/>
      <path class="cls-1" d="M533.15,512.78c5.43.02,9.22,2.9,11.25,6.88,1.85,3.64,1.88,7.51,2.45,11.33.48,3.19,1.57,5.92,4.02,8.25,3.7,3.53,6.76,7.68,10.22,11.44,3.52,3.84,6.86,7.84,10.4,11.66,2.56,2.76,1.35,6.66-2.26,7.77-1.46.45-2.7.07-3.77-1.19-2.99-3.52-6.18-6.86-9.09-10.43-3.96-4.86-8.23-9.47-12.59-13.9-4.07-4.14-3.73-9.11-4.82-13.9-.51-2.25-.85-4.53-1.45-6.78-.56-2.09-2.03-2.49-3.66-2.65-1.86-.18-3.65-.31-5.2,1.5-1.64,1.92-2.41,4.06-2.79,6.4-.33,2.04-1.07,3.06-3.31,2.35-2.58-.82-3.7-2.27-2.78-4.33,1.52-3.43,2.56-7.1,5.21-10,2.5-2.74,5.59-3.99,8.18-4.4Z"/>
      <path class="cls-1" d="M123.59,554.79c.33,3.74-1.21,6.87-3.43,9.64-5.25,6.55-10.64,12.99-15.93,19.52-1.1,1.36-2.05,1.52-3.53.53-5.91-3.99-5.95-4.25-1.37-9.72,4.32-5.16,8.63-10.32,12.84-15.58,4.04-5.05,3.26-8.78-2.28-12.01-2.39-1.39-4.96-2.36-7.65-2.89-1.62-.32-1.84-1.15-1.39-2.49.03-.08.05-.16.08-.24,1.5-4.46,1.54-4.61,6.06-3.49,6.81,1.68,12.33,5.23,15.71,11.64.86,1.64.84,3.36.89,5.09Z"/>
      <path class="cls-1" d="M260.9,620.88c-2.33,0-4.64.22-6.86,1.01-1.56.55-2.61.2-2.7-1.69-.01-.32-.19-.63-.27-.96-.79-3.14-.54-3.75,2.54-4.68,5.38-1.62,10.83-1.76,16.2-.05,7.89,2.52,10.38,8.84,9.38,16.05-1.14,8.22-2.86,16.36-4.25,24.55-.35,2.06-1.27,2.97-3.37,2.47-.08-.02-.17-.01-.25-.02-7.51-1.25-6.48-.36-5.33-6.39,1.27-6.69,2.5-13.38,3.6-20.1.36-2.17.76-4.44-.34-6.59-1.79-3.53-5.02-3.67-8.35-3.61Z"/>
      <path class="cls-1" d="M423.98,648.66c-1.55.15-1.94-.98-2.24-2.01-1.91-6.7-3.76-13.43-5.65-20.14-1.37-4.87-2.71-9.74-4.16-14.58-.6-1.99-.33-3.21,1.97-3.56,1.22-.19,2.48-.48,3.57-1.04,2.51-1.28,3.25.27,3.79,2.18,3.29,11.65,6.56,23.31,9.86,34.96.35,1.25.23,2.03-1.2,2.4-2,.51-3.96,1.18-5.94,1.78Z"/>
      <path class="cls-1" d="M424.13,596.44c-.18-1.38.58-2.14,1.88-2.74,5.58-2.55,11.09-5.24,16.69-7.73,2.12-.94,3.18-1.96,1.66-4.21-.37-.54-.65-1.16-.86-1.79-.41-1.2-.53-2.33,1.11-2.72.24-.06.46-.19.69-.29q5.67-2.52,7.9,3.34c.64,1.69.78,3.52,1.62,5.18.47.93.27,2.02-1.05,2.64-8.11,3.82-16.18,7.75-24.29,11.58-3.45,1.63-5.32.47-5.36-3.28Z"/>
      <path class="cls-1" d="M593.39,469.85c-.77.03-1.47-.2-2.11-.61-1.88-1.2-3.77-2.39-5.65-3.59-1.34-.85-1.48-2.2-1.17-3.53.35-1.51.64-3.48,2.27-3.87,1.66-.4,3.3.65,4.59,1.88,1.2,1.15,2.08,2.74,4.21,2.34.75-.14,1.38.51,1.72,1.23,1.01,2.14-1.47,6.09-3.85,6.14Z"/>
    </g>
  </g>
</svg>