<?xml version="1.0" encoding="UTF-8"?>
<svg id="Layer_2" data-name="Layer 2" xmlns="http://www.w3.org/2000/svg" version="1.1" viewBox="0 0 252.9 362.8">
  <defs>
    <style>
      .cls-1 {
        fill: #092f48;
      }

      .cls-1, .cls-2, .cls-3, .cls-4, .cls-5 {
        stroke-width: 0px;
      }

      .cls-2 {
        fill: #dd9031;
      }

      .cls-3 {
        fill: #fbf6ee;
      }

      .cls-4 {
        fill: #3fa059;
      }

      .cls-5 {
        fill: #30787a;
      }
    </style>
  </defs>
  <g id="Layer_1-2" data-name="Layer 1-2">
    <g>
      <path class="cls-2" d="M-317.5-34.7c0-24.4-10.2-44.1-27.6-60.9-20.1-19.3-33.5-42.8-38-70.5-7.1-44.4,5.6-82.7,38.5-113.4,22.7-21.2,50.4-33,81.4-33.5,43.5-.7,79.5,16.5,105.8,51.4,37.6,49.7,32.7,117.6-11.6,163.9-12.8,13.4-23.6,27.2-26.7,45.9-.9,5.5-1.6,11.1-2.4,16.7-5.2.6-10.4.8-15.7,0-.4-28.3,9.9-51.7,30.1-71.7,26-25.7,38.2-57.1,33.7-93.8-8.1-64.7-72.2-107.3-135.7-91.7-61.7,15.2-95.3,78.8-78.5,134.6,7.1,23.6,22.4,41.9,39.1,59.3,17,17.7,23.8,39.3,24,63.4-5.5,0-10.9.1-16.4.2Z"/>
      <path class="cls-1" d="M-213.8-35.1c5.2.8,10.4.6,15.7,0,3.3,1.9,7.4,3.1,7.5,8.1.1,4.7-2.2,7.5-6.5,8.7-3.3.9-1.9,3.3-2,5.1-.4,5.8.2,11.6-1.2,17.5-1.6,6.3-5.4,10.1-11.3,10.9-3.7.5-4.4,2-5.1,4.9-4.5,17.9-21.6,30.5-39.9,29.7-24.1-1-35.2-8.1-43.1-31-.8-2.4-2.1-2.9-4.5-3.3-8.4-1.5-13-7-13.5-15.5-.2-3.5-.2-7,0-10.6.2-4-.2-7-4.3-9.8-5.8-4-3.7-10,4.5-14.3,5.5,0,10.9-.1,16.4-.2,17.2.1,34.5.4,51.7.4,11.9,0,23.8.8,35.6-.6h0ZM-258.6-1.4h0c11-.1,22,0,33.1-.1,11.8,0,10.8,2.6,10.9-11.4,0-.2,0-.5,0-.7.5-3.8-1.3-4.8-4.9-4.7-25.8.1-51.6.1-77.4,0-3.9,0-5.7,1.2-5.3,5.2.2,1.9.2,3.8,0,5.6-.6,5,1.4,6.4,6.3,6.3,12.4-.3,24.9-.1,37.3-.1h0ZM-257.8,14.4c-4.7,0-9.4-.4-14,.1-3.6.4-9-2.8-10.3,2.3-1.2,4.8,3.3,8.4,6.9,11.3,1.7,1.4,4.1,2.2,6.3,2.9,5.7,2,11.6,1.4,17.4,1.1,8.4-.4,13.6-5.4,17.1-12.6,2.1-4.1.5-5.4-3.7-5.3-6.5.2-13.1,0-19.6,0h0Z"/>
      <path class="cls-3" d="M-213.8-35.1c-11.9,1.4-23.8.6-35.6.6-17.2,0-34.5-.3-51.7-.4-.1-24.1-7-45.8-24-63.4-16.7-17.4-32-35.7-39.1-59.3-16.8-55.7,16.8-119.4,78.5-134.6,63.5-15.6,127.6,27,135.7,91.7,4.6,36.7-7.6,68.1-33.7,93.8-20.2,19.9-30.5,43.4-30.1,71.7h0ZM-267.2-123.1c0,23,.2,46,.2,69,0,3.5.3,6.6,3.4,8.7,2.7,1.8,5.4,2.2,8.6.7,3.7-1.8,4.9-4.6,4.9-8.5,0-23.2.1-46.5.2-69.7,34.6,1,55.1-13.8,60.1-44.9,3.7-23.1-4.5-47.9-28.8-56.4-2.7-.9-2.8-2.4-3.1-4.6-2.2-15.4-11-25.8-25.4-30.8-22.3-7.7-45.7,6.3-51.1,29.9-.8,3.3-1,6.4-5.1,8.3-31.8,14.3-32.1,59.8-14.1,79,13.9,14.7,30.9,19.4,50.2,19.2h0Z"/>
      <path class="cls-5" d="M-258.6-1.4c-12.4,0-24.9-.2-37.3.1-4.9.1-6.9-1.3-6.3-6.3.2-1.9.2-3.8,0-5.6-.4-4,1.3-5.2,5.3-5.2,25.8.1,51.6.1,77.4,0,3.6,0,5.4,1,4.9,4.7,0,.2,0,.5,0,.7-.1,14.1.9,11.3-10.9,11.4-11,0-22.1,0-33.1,0h0c0,.1,0,.1,0,.1Z"/>
      <path class="cls-5" d="M-257.8,14.4c6.6,0,13.1.1,19.6,0,4.2-.1,5.8,1.2,3.7,5.3-3.6,7.1-8.8,12.2-17.1,12.6-5.8.3-11.7.9-17.4-1.1-2.2-.8-4.6-1.5-6.3-2.9-3.6-3-8.1-6.5-6.9-11.3,1.3-5.1,6.8-1.9,10.3-2.3,4.6-.6,9.3-.1,14-.1h0Z"/>
      <path class="cls-4" d="M-267.2-123.1c-19.2.1-36.3-4.5-50.2-19.2-18.1-19.2-17.7-64.7,14.1-79,4.1-1.8,4.3-5,5.1-8.3,5.4-23.6,28.8-37.6,51-29.9,14.4,5,23.2,15.4,25.4,30.8.3,2.2.4,3.6,3.1,4.6,24.2,8.5,32.5,33.2,28.8,56.4-5,31.1-25.4,45.9-60.1,44.9-.1-3.3,0-6.6-.4-9.8-1.1-7.2,1.6-12.4,6.9-17.2,7.2-6.4,13.7-13.5,20.6-20.3,4-4,4.3-8.6.8-12.5-3.5-3.9-8.2-3.1-12,.2-3.5,3.1-6.6,6.7-9.9,10-1.7,1.7-3,4.1-6.2,4.3v-35.5c0-5.5-1.8-9.9-8.1-10.3-5.4-.3-8.6,3.7-8.6,10.4,0,12.1,0,24.2,0,36.4-.6.4-1.1.8-1.7,1.1-3.9-4.3-7.6-8.7-11.7-12.7-4.9-4.9-10.6-5.2-14.3-1.5-3.6,3.6-2.7,8.3,2.5,13.4,7.4,7.3,14.7,14.6,22.1,21.7,2.4,2.3,3.5,4.7,3.2,8.1-.3,4.7-.3,9.4-.4,14.1h0Z"/>
      <path class="cls-1" d="M-267.2-123.1c.1-4.7,0-9.4.4-14.1.2-3.3-.9-5.8-3.2-8.1-7.5-7.2-14.8-14.5-22.1-21.7-5.2-5.1-6-9.8-2.5-13.4,3.8-3.8,9.4-3.4,14.3,1.5,4.1,4,7.8,8.5,11.7,12.7.6-.4,1.1-.8,1.7-1.1,0-12.1,0-24.2,0-36.4,0-6.7,3.2-10.7,8.6-10.4,6.3.4,8.1,4.8,8.1,10.3v35.5c3.2-.2,4.5-2.6,6.2-4.3,3.3-3.3,6.4-6.9,9.9-10,3.8-3.3,8.5-4.1,12-.2,3.5,3.9,3.2,8.6-.8,12.5-6.9,6.8-13.4,13.9-20.6,20.3-5.3,4.8-7.9,10-6.9,17.2.5,3.2.3,6.6.4,9.8,0,23.2-.2,46.5-.2,69.7,0,3.9-1.1,6.7-4.9,8.5-3.2,1.5-5.9,1.1-8.6-.7-3.1-2.1-3.4-5.2-3.4-8.7,0-23-.1-46-.2-69h0Z"/>
    </g>
  </g>
</svg>